#N canvas 67 52 1883 1102 10;
#X obj 623 191 vcf~;
#X obj 1579 1060 dac~;
#X obj 623 216 *~ 0.1;
#X obj 64 103 s~ in;
#X obj 623 53 r~ in;
#X obj 42 222 s q;
#X floatatom 44 172 5 0 0 0 - - -;
#X obj 644 168 r q;
#X obj 46 293 hsl 128 15 0 127 0 0 empty empty empty -2 -8 0 10 -262144
-1 -1 6500 1;
#X obj 43 319 s freq;
#X obj 633 78 r freq;
#X obj 1579 808 catch~ dacL;
#X obj 1617 833 catch~ dacR;
#X obj 623 240 throw~ dacL;
#X obj 633 101 mtof;
#X obj 620 561 vcf~;
#X obj 620 586 *~ 0.1;
#X obj 620 344 r~ in;
#X obj 641 538 r q;
#X obj 630 369 r freq;
#X obj 630 492 mtof;
#X obj 620 610 throw~ dacR;
#X obj 755 257 vcf~;
#X obj 755 282 *~ 0.1;
#X obj 754 40 r~ in;
#X obj 776 234 r q;
#X obj 765 65 r freq;
#X obj 755 306 throw~ dacL;
#X obj 765 186 mtof;
#X obj 752 570 vcf~;
#X obj 752 595 *~ 0.1;
#X obj 752 353 r~ in;
#X obj 773 547 r q;
#X obj 762 378 r freq;
#X obj 762 501 mtof;
#X obj 752 619 throw~ dacR;
#X obj 869 256 vcf~;
#X obj 869 281 *~ 0.1;
#X obj 868 39 r~ in;
#X obj 890 233 r q;
#X obj 878 64 r freq;
#X obj 869 305 throw~ dacL;
#X obj 879 185 mtof;
#X obj 870 563 vcf~;
#X obj 870 588 *~ 0.1;
#X obj 870 346 r~ in;
#X obj 891 540 r q;
#X obj 880 371 r freq;
#X obj 880 494 mtof;
#X obj 870 612 throw~ dacR;
#X obj 964 254 vcf~;
#X obj 964 279 *~ 0.1;
#X obj 963 37 r~ in;
#X obj 985 229 r q;
#X obj 973 62 r freq;
#X obj 964 303 throw~ dacL;
#X obj 974 183 mtof;
#X obj 961 567 vcf~;
#X obj 961 592 *~ 0.1;
#X obj 961 350 r~ in;
#X obj 982 544 r q;
#X obj 971 375 r freq;
#X obj 971 498 mtof;
#X obj 961 616 throw~ dacR;
#X obj 1078 253 vcf~;
#X obj 1078 278 *~ 0.1;
#X obj 1077 36 r~ in;
#X obj 1099 229 r q;
#X obj 1087 61 r freq;
#X obj 1078 302 throw~ dacL;
#X obj 1088 182 mtof;
#X obj 1079 560 vcf~;
#X obj 1079 585 *~ 0.1;
#X obj 1079 343 r~ in;
#X obj 1100 537 r q;
#X obj 1089 368 r freq;
#X obj 1089 491 mtof;
#X obj 1079 609 throw~ dacR;
#X obj 1186 262 vcf~;
#X obj 1186 287 *~ 0.1;
#X obj 1185 45 r~ in;
#X obj 1207 239 r q;
#X obj 1195 70 r freq;
#X obj 1186 311 throw~ dacL;
#X obj 1196 191 mtof;
#X obj 1183 575 vcf~;
#X obj 1183 600 *~ 0.1;
#X obj 1183 358 r~ in;
#X obj 1204 552 r q;
#X obj 1193 383 r freq;
#X obj 1193 506 mtof;
#X obj 1183 624 throw~ dacR;
#X obj 1300 261 vcf~;
#X obj 1300 286 *~ 0.1;
#X obj 1299 44 r~ in;
#X obj 1321 238 r q;
#X obj 1309 69 r freq;
#X obj 1300 310 throw~ dacL;
#X obj 1310 190 mtof;
#X obj 1301 568 vcf~;
#X obj 1301 593 *~ 0.1;
#X obj 1301 351 r~ in;
#X obj 1322 545 r q;
#X obj 1311 376 r freq;
#X obj 1301 617 throw~ dacR;
#X obj 1409 263 vcf~;
#X obj 1409 288 *~ 0.1;
#X obj 1408 46 r~ in;
#X obj 1430 240 r q;
#X obj 1418 71 r freq;
#X obj 1409 312 throw~ dacL;
#X obj 1419 192 mtof;
#X obj 1410 570 vcf~;
#X obj 1410 595 *~ 0.1;
#X obj 1410 353 r~ in;
#X obj 1431 547 r q;
#X obj 1420 378 r freq;
#X obj 1420 501 mtof;
#X obj 1410 619 throw~ dacR;
#X obj 792 91 r spread;
#X obj 792 114 * 1.5;
#X obj 765 162 + 1.5;
#X obj 31 652 s spread;
#X obj 31 629 clip 1 20;
#X obj 765 115 t b;
#X floatatom 765 141 5 0 0 0 - - -;
#X obj 789 408 r spread;
#X obj 762 432 t b;
#X floatatom 762 458 5 0 0 0 - - -;
#X obj 789 431 * 2;
#X obj 762 479 + 2;
#X obj 905 92 r spread;
#X obj 878 116 t b;
#X floatatom 878 142 5 0 0 0 - - -;
#X obj 908 400 r spread;
#X obj 881 424 t b;
#X floatatom 881 450 5 0 0 0 - - -;
#X obj 908 423 * 3;
#X obj 881 471 + 3;
#X obj 905 115 * 2.5;
#X obj 878 163 + 2.5;
#X obj 1002 88 r spread;
#X obj 975 112 t b;
#X floatatom 975 138 5 0 0 0 - - -;
#X obj 999 405 r spread;
#X obj 972 429 t b;
#X floatatom 972 455 5 0 0 0 - - -;
#X obj 1115 89 r spread;
#X obj 1088 113 t b;
#X floatatom 1088 139 5 0 0 0 - - -;
#X obj 1118 397 r spread;
#X obj 1091 421 t b;
#X floatatom 1091 447 5 0 0 0 - - -;
#X obj 1002 111 * 3.5;
#X obj 975 161 + 3.5;
#X obj 1115 112 * 4.5;
#X obj 1088 160 + 4.5;
#X obj 999 428 * 4;
#X obj 972 476 + 4;
#X obj 1118 420 * 5;
#X obj 1091 468 + 5;
#X obj 1518 255 vcf~;
#X obj 1518 280 *~ 0.1;
#X obj 1517 38 r~ in;
#X obj 1539 232 r q;
#X obj 1527 63 r freq;
#X obj 1518 304 throw~ dacL;
#X obj 1528 184 mtof;
#X obj 1519 562 vcf~;
#X obj 1519 587 *~ 0.1;
#X obj 1519 345 r~ in;
#X obj 1540 539 r q;
#X obj 1529 370 r freq;
#X obj 1529 493 mtof;
#X obj 1519 611 throw~ dacR;
#X obj 1627 257 vcf~;
#X obj 1627 282 *~ 0.1;
#X obj 1626 40 r~ in;
#X obj 1648 234 r q;
#X obj 1636 65 r freq;
#X obj 1627 306 throw~ dacL;
#X obj 1637 186 mtof;
#X obj 1628 564 vcf~;
#X obj 1628 589 *~ 0.1;
#X obj 1628 347 r~ in;
#X obj 1649 541 r q;
#X obj 1638 372 r freq;
#X obj 1638 495 mtof;
#X obj 1628 613 throw~ dacR;
#X obj 1222 95 r spread;
#X obj 1195 119 t b;
#X floatatom 1195 145 5 0 0 0 - - -;
#X obj 1219 412 r spread;
#X obj 1192 436 t b;
#X floatatom 1192 462 5 0 0 0 - - -;
#X obj 1337 96 r spread;
#X obj 1310 120 t b;
#X floatatom 1310 146 5 0 0 0 - - -;
#X obj 1338 404 r spread;
#X obj 1311 428 t b;
#X floatatom 1311 454 5 0 0 0 - - -;
#X obj 1446 92 r spread;
#X obj 1419 116 t b;
#X floatatom 1419 142 5 0 0 0 - - -;
#X obj 1447 402 r spread;
#X obj 1420 426 t b;
#X floatatom 1420 452 5 0 0 0 - - -;
#X obj 1556 93 r spread;
#X obj 1529 117 t b;
#X floatatom 1529 143 5 0 0 0 - - -;
#X obj 1556 394 r spread;
#X obj 1529 418 t b;
#X floatatom 1529 444 5 0 0 0 - - -;
#X obj 1311 498 mtof;
#X obj 1665 89 r spread;
#X obj 1638 113 t b;
#X floatatom 1638 139 5 0 0 0 - - -;
#X obj 1665 390 r spread;
#X obj 1638 414 t b;
#X floatatom 1638 440 5 0 0 0 - - -;
#X obj 1222 118 * 5.5;
#X obj 1337 119 * 6.5;
#X obj 1446 115 * 7.5;
#X obj 1556 116 * 8.5;
#X obj 1665 112 * 9.5;
#X obj 1195 166 + 5.5;
#X obj 1310 167 + 6.5;
#X obj 1419 165 + 7.5;
#X obj 1529 164 + 8.5;
#X obj 1638 160 + 9.5;
#X obj 1219 435 * 6;
#X obj 1338 427 * 7;
#X obj 1447 425 * 8;
#X obj 1556 417 * 9;
#X obj 1665 413 * 10;
#X obj 1192 483 + 6;
#X obj 1311 475 + 7;
#X obj 1420 473 + 8;
#X obj 1529 465 + 9;
#X obj 1638 461 + 10;
#X obj 34 604 hsl 128 15 0.1 10 0 0 empty empty empty -2 -8 0 10 -262144
-1 -1 7400 1;
#X obj 658 397 r spread;
#X obj 631 421 t b;
#X floatatom 631 447 5 0 0 0 - - -;
#X obj 631 468 + 1;
#X obj 630 513 clip 20 19000;
#X obj 762 523 clip 20 19000;
#X obj 880 517 clip 20 19000;
#X obj 972 521 clip 20 19000;
#X obj 1089 513 clip 20 19000;
#X obj 1193 529 clip 20 19000;
#X obj 1311 523 clip 20 19000;
#X obj 1421 526 clip 20 19000;
#X obj 1531 519 clip 20 19000;
#X obj 1639 518 clip 20 19000;
#X obj 633 143 clip 20 19000;
#X obj 765 210 clip 20 19000;
#X obj 879 209 clip 20 19000;
#X obj 974 207 clip 20 19000;
#X obj 1088 206 clip 20 19000;
#X obj 1196 216 clip 20 19000;
#X obj 1310 215 clip 20 19000;
#X obj 1419 218 clip 20 19000;
#X obj 1528 209 clip 20 19000;
#X obj 1637 210 clip 20 19000;
#X obj 1579 1036 *~;
#X obj 1617 1035 *~;
#X obj 1632 1008 vline~;
#X msg 1632 986 \$1 20;
#X obj 1632 857 r q;
#X floatatom 1731 969 5 0 0 0 - - -;
#X obj 47 152 hsl 128 15 0.1 600 0 0 empty empty empty -2 -8 0 10 -262144
-1 -1 12700 1;
#X obj 44 194 clip 0.1 600;
#X obj 1671 925 expr ($f1 / 100) + 1;
#X obj 1631 879 moses 4;
#X obj 1632 903 expr ($f1 * 0.25) + 0.25;
#X connect 0 0 2 0;
#X connect 2 0 13 0;
#X connect 4 0 0 0;
#X connect 6 0 272 0;
#X connect 7 0 0 2;
#X connect 8 0 9 0;
#X connect 10 0 14 0;
#X connect 11 0 265 0;
#X connect 12 0 266 0;
#X connect 14 0 255 0;
#X connect 15 0 16 0;
#X connect 16 0 21 0;
#X connect 17 0 15 0;
#X connect 18 0 15 2;
#X connect 19 0 243 0;
#X connect 20 0 245 0;
#X connect 22 0 23 0;
#X connect 23 0 27 0;
#X connect 24 0 22 0;
#X connect 25 0 22 2;
#X connect 26 0 125 0;
#X connect 28 0 256 0;
#X connect 29 0 30 0;
#X connect 30 0 35 0;
#X connect 31 0 29 0;
#X connect 32 0 29 2;
#X connect 33 0 128 0;
#X connect 34 0 246 0;
#X connect 36 0 37 0;
#X connect 37 0 41 0;
#X connect 38 0 36 0;
#X connect 39 0 36 2;
#X connect 42 0 257 0;
#X connect 43 0 44 0;
#X connect 44 0 49 0;
#X connect 45 0 43 0;
#X connect 46 0 43 2;
#X connect 47 0 136 0;
#X connect 48 0 247 0;
#X connect 50 0 51 0;
#X connect 51 0 55 0;
#X connect 52 0 50 0;
#X connect 53 0 50 2;
#X connect 54 0 143 0;
#X connect 56 0 258 0;
#X connect 57 0 58 0;
#X connect 58 0 63 0;
#X connect 59 0 57 0;
#X connect 60 0 57 2;
#X connect 61 0 146 0;
#X connect 62 0 248 0;
#X connect 64 0 65 0;
#X connect 65 0 69 0;
#X connect 66 0 64 0;
#X connect 67 0 64 2;
#X connect 68 0 149 0;
#X connect 70 0 259 0;
#X connect 71 0 72 0;
#X connect 72 0 77 0;
#X connect 73 0 71 0;
#X connect 74 0 71 2;
#X connect 75 0 152 0;
#X connect 76 0 249 0;
#X connect 78 0 79 0;
#X connect 79 0 83 0;
#X connect 80 0 78 0;
#X connect 81 0 78 2;
#X connect 82 0 191 0;
#X connect 84 0 260 0;
#X connect 85 0 86 0;
#X connect 86 0 91 0;
#X connect 87 0 85 0;
#X connect 88 0 85 2;
#X connect 89 0 194 0;
#X connect 90 0 250 0;
#X connect 92 0 93 0;
#X connect 93 0 97 0;
#X connect 94 0 92 0;
#X connect 95 0 92 2;
#X connect 96 0 197 0;
#X connect 98 0 261 0;
#X connect 99 0 100 0;
#X connect 100 0 104 0;
#X connect 101 0 99 0;
#X connect 102 0 99 2;
#X connect 103 0 200 0;
#X connect 105 0 106 0;
#X connect 106 0 110 0;
#X connect 107 0 105 0;
#X connect 108 0 105 2;
#X connect 109 0 203 0;
#X connect 111 0 262 0;
#X connect 112 0 113 0;
#X connect 113 0 118 0;
#X connect 114 0 112 0;
#X connect 115 0 112 2;
#X connect 116 0 206 0;
#X connect 117 0 252 0;
#X connect 119 0 120 0;
#X connect 119 0 124 0;
#X connect 120 0 121 1;
#X connect 121 0 28 0;
#X connect 123 0 122 0;
#X connect 124 0 125 0;
#X connect 125 0 121 0;
#X connect 126 0 127 0;
#X connect 126 0 129 0;
#X connect 127 0 128 0;
#X connect 128 0 130 0;
#X connect 129 0 130 1;
#X connect 130 0 34 0;
#X connect 131 0 132 0;
#X connect 131 0 139 0;
#X connect 132 0 133 0;
#X connect 133 0 140 0;
#X connect 134 0 135 0;
#X connect 134 0 137 0;
#X connect 135 0 136 0;
#X connect 136 0 138 0;
#X connect 137 0 138 1;
#X connect 138 0 48 0;
#X connect 139 0 140 1;
#X connect 140 0 42 0;
#X connect 141 0 142 0;
#X connect 141 0 153 0;
#X connect 142 0 143 0;
#X connect 143 0 154 0;
#X connect 144 0 145 0;
#X connect 144 0 157 0;
#X connect 145 0 146 0;
#X connect 146 0 158 0;
#X connect 147 0 148 0;
#X connect 147 0 155 0;
#X connect 148 0 149 0;
#X connect 149 0 156 0;
#X connect 150 0 151 0;
#X connect 150 0 159 0;
#X connect 151 0 152 0;
#X connect 152 0 160 0;
#X connect 153 0 154 1;
#X connect 154 0 56 0;
#X connect 155 0 156 1;
#X connect 156 0 70 0;
#X connect 157 0 158 1;
#X connect 158 0 62 0;
#X connect 159 0 160 1;
#X connect 160 0 76 0;
#X connect 161 0 162 0;
#X connect 162 0 166 0;
#X connect 163 0 161 0;
#X connect 164 0 161 2;
#X connect 165 0 209 0;
#X connect 167 0 263 0;
#X connect 168 0 169 0;
#X connect 169 0 174 0;
#X connect 170 0 168 0;
#X connect 171 0 168 2;
#X connect 172 0 212 0;
#X connect 173 0 253 0;
#X connect 175 0 176 0;
#X connect 176 0 180 0;
#X connect 177 0 175 0;
#X connect 178 0 175 2;
#X connect 179 0 216 0;
#X connect 181 0 264 0;
#X connect 182 0 183 0;
#X connect 183 0 188 0;
#X connect 184 0 182 0;
#X connect 185 0 182 2;
#X connect 186 0 219 0;
#X connect 187 0 254 0;
#X connect 189 0 190 0;
#X connect 189 0 220 0;
#X connect 190 0 191 0;
#X connect 191 0 225 0;
#X connect 192 0 193 0;
#X connect 192 0 230 0;
#X connect 193 0 194 0;
#X connect 194 0 235 0;
#X connect 195 0 196 0;
#X connect 195 0 221 0;
#X connect 196 0 197 0;
#X connect 197 0 226 0;
#X connect 198 0 199 0;
#X connect 198 0 231 0;
#X connect 199 0 200 0;
#X connect 200 0 236 0;
#X connect 201 0 202 0;
#X connect 201 0 222 0;
#X connect 202 0 203 0;
#X connect 203 0 227 0;
#X connect 204 0 205 0;
#X connect 204 0 232 0;
#X connect 205 0 206 0;
#X connect 206 0 237 0;
#X connect 207 0 208 0;
#X connect 207 0 223 0;
#X connect 208 0 209 0;
#X connect 209 0 228 0;
#X connect 210 0 211 0;
#X connect 210 0 233 0;
#X connect 211 0 212 0;
#X connect 212 0 238 0;
#X connect 213 0 251 0;
#X connect 214 0 215 0;
#X connect 214 0 224 0;
#X connect 215 0 216 0;
#X connect 216 0 229 0;
#X connect 217 0 218 0;
#X connect 217 0 234 0;
#X connect 218 0 219 0;
#X connect 219 0 239 0;
#X connect 220 0 225 1;
#X connect 221 0 226 1;
#X connect 222 0 227 1;
#X connect 223 0 228 1;
#X connect 224 0 229 1;
#X connect 225 0 84 0;
#X connect 226 0 98 0;
#X connect 227 0 111 0;
#X connect 228 0 167 0;
#X connect 229 0 181 0;
#X connect 230 0 235 1;
#X connect 231 0 236 1;
#X connect 232 0 237 1;
#X connect 233 0 238 1;
#X connect 234 0 239 1;
#X connect 235 0 90 0;
#X connect 236 0 213 0;
#X connect 237 0 117 0;
#X connect 238 0 173 0;
#X connect 239 0 187 0;
#X connect 240 0 123 0;
#X connect 241 0 242 0;
#X connect 241 0 244 1;
#X connect 242 0 243 0;
#X connect 243 0 244 0;
#X connect 244 0 20 0;
#X connect 245 0 15 1;
#X connect 246 0 29 1;
#X connect 247 0 43 1;
#X connect 248 0 57 1;
#X connect 249 0 71 1;
#X connect 250 0 85 1;
#X connect 251 0 99 1;
#X connect 252 0 112 1;
#X connect 253 0 168 1;
#X connect 254 0 182 1;
#X connect 255 0 0 1;
#X connect 256 0 22 1;
#X connect 257 0 36 1;
#X connect 258 0 50 1;
#X connect 259 0 64 1;
#X connect 260 0 78 1;
#X connect 261 0 92 1;
#X connect 262 0 105 1;
#X connect 263 0 161 1;
#X connect 264 0 175 1;
#X connect 265 0 1 0;
#X connect 266 0 1 1;
#X connect 267 0 266 1;
#X connect 267 0 265 1;
#X connect 268 0 267 0;
#X connect 269 0 274 0;
#X connect 271 0 6 0;
#X connect 272 0 5 0;
#X connect 273 0 268 0;
#X connect 273 0 270 0;
#X connect 274 0 275 0;
#X connect 274 1 273 0;
#X connect 275 0 268 0;
#X connect 275 0 270 0;
