#N canvas 1 22 2559 1392 10;
#X obj 517 258 vcf~;
#X obj 109 976 dac~;
#X obj 517 283 *~ 0.1;
#X obj 78 94 s~ in;
#X obj 517 25 r~ in;
#X obj 42 222 s q;
#X floatatom 44 172 5 0 0 0 - - -;
#X obj 538 235 r q;
#X obj 46 293 hsl 128 15 0 4095 0 0 empty empty empty -2 -8 0 10 -262144
-1 -1 6423 1;
#X obj 44 380 s freq;
#X obj 527 50 r freq;
#X obj 109 724 catch~ dacL;
#X obj 147 749 catch~ dacR;
#X obj 527 73 mtof;
#X obj 525 903 vcf~;
#X obj 525 928 *~ 0.1;
#X obj 525 686 r~ in;
#X obj 546 880 r q;
#X obj 535 711 r freq;
#X obj 535 834 mtof;
#X obj 801 234 vcf~;
#X obj 800 17 r~ in;
#X obj 822 211 r q;
#X obj 811 42 r freq;
#X obj 811 163 mtof;
#X obj 803 913 vcf~;
#X obj 803 938 *~ 0.1;
#X obj 803 696 r~ in;
#X obj 824 890 r q;
#X obj 813 721 r freq;
#X obj 813 844 mtof;
#X obj 1064 236 vcf~;
#X obj 1063 19 r~ in;
#X obj 1085 213 r q;
#X obj 1073 44 r freq;
#X obj 1074 165 mtof;
#X obj 1068 914 vcf~;
#X obj 1068 939 *~ 0.1;
#X obj 1068 697 r~ in;
#X obj 1089 891 r q;
#X obj 1078 722 r freq;
#X obj 1078 845 mtof;
#X obj 1362 231 vcf~;
#X obj 1362 256 *~ 0.1;
#X obj 1361 14 r~ in;
#X obj 1383 206 r q;
#X obj 1371 39 r freq;
#X obj 1372 160 mtof;
#X obj 1366 917 vcf~;
#X obj 1366 942 *~ 0.1;
#X obj 1366 700 r~ in;
#X obj 1387 894 r q;
#X obj 1376 725 r freq;
#X obj 1376 848 mtof;
#X obj 1642 230 vcf~;
#X obj 1642 255 *~ 0.1;
#X obj 1641 13 r~ in;
#X obj 1663 206 r q;
#X obj 1651 38 r freq;
#X obj 1652 159 mtof;
#X obj 1646 912 vcf~;
#X obj 1646 937 *~ 0.1;
#X obj 1646 695 r~ in;
#X obj 1667 889 r q;
#X obj 1656 720 r freq;
#X obj 1656 843 mtof;
#X obj 1904 234 vcf~;
#X obj 1904 259 *~ 0.1;
#X obj 1903 17 r~ in;
#X obj 1925 211 r q;
#X obj 1913 42 r freq;
#X obj 1914 163 mtof;
#X obj 1900 924 vcf~;
#X obj 1900 949 *~ 0.1;
#X obj 1900 707 r~ in;
#X obj 1921 901 r q;
#X obj 1910 732 r freq;
#X obj 1910 855 mtof;
#X obj 2202 238 vcf~;
#X obj 2202 263 *~ 0.1;
#X obj 2201 21 r~ in;
#X obj 2223 215 r q;
#X obj 2211 46 r freq;
#X obj 2212 167 mtof;
#X obj 2207 919 vcf~;
#X obj 2207 944 *~ 0.1;
#X obj 2207 702 r~ in;
#X obj 2228 896 r q;
#X obj 2217 727 r freq;
#X obj 2498 236 vcf~;
#X obj 2498 261 *~ 0.1;
#X obj 2497 19 r~ in;
#X obj 2519 213 r q;
#X obj 2507 44 r freq;
#X obj 2508 165 mtof;
#X obj 2503 920 vcf~;
#X obj 2503 945 *~ 0.1;
#X obj 2503 703 r~ in;
#X obj 2524 897 r q;
#X obj 2513 728 r freq;
#X obj 2513 851 mtof;
#X obj 838 68 r spread;
#X obj 838 91 * 1.5;
#X obj 811 139 + 1.5;
#X obj 31 652 s spread;
#X obj 31 629 clip 1 20;
#X obj 811 92 t b;
#X floatatom 811 118 5 0 0 0 - - -;
#X obj 840 751 r spread;
#X obj 813 775 t b;
#X floatatom 813 801 5 0 0 0 - - -;
#X obj 840 774 * 2;
#X obj 813 822 + 2;
#X obj 1100 72 r spread;
#X obj 1073 96 t b;
#X floatatom 1073 122 5 0 0 0 - - -;
#X obj 1106 751 r spread;
#X obj 1079 775 t b;
#X floatatom 1079 801 5 0 0 0 - - -;
#X obj 1106 774 * 3;
#X obj 1079 822 + 3;
#X obj 1100 95 * 2.5;
#X obj 1073 143 + 2.5;
#X obj 1400 65 r spread;
#X obj 1373 89 t b;
#X floatatom 1373 115 5 0 0 0 - - -;
#X obj 1404 755 r spread;
#X obj 1377 779 t b;
#X floatatom 1377 805 5 0 0 0 - - -;
#X obj 1679 66 r spread;
#X obj 1652 90 t b;
#X floatatom 1652 116 5 0 0 0 - - -;
#X obj 1685 749 r spread;
#X obj 1658 773 t b;
#X floatatom 1658 799 5 0 0 0 - - -;
#X obj 1400 88 * 3.5;
#X obj 1373 138 + 3.5;
#X obj 1679 89 * 4.5;
#X obj 1652 137 + 4.5;
#X obj 1404 778 * 4;
#X obj 1377 826 + 4;
#X obj 1685 772 * 5;
#X obj 1658 820 + 5;
#X obj 2762 222 vcf~;
#X obj 2762 247 *~ 0.1;
#X obj 2761 5 r~ in;
#X obj 2783 199 r q;
#X obj 2771 30 r freq;
#X obj 2772 151 mtof;
#X obj 2766 919 vcf~;
#X obj 2766 944 *~ 0.1;
#X obj 2766 702 r~ in;
#X obj 2787 896 r q;
#X obj 2776 727 r freq;
#X obj 2776 850 mtof;
#X obj 3060 240 vcf~;
#X obj 3060 265 *~ 0.1;
#X obj 3059 23 r~ in;
#X obj 3081 217 r q;
#X obj 3069 48 r freq;
#X obj 3070 169 mtof;
#X obj 3065 922 vcf~;
#X obj 3065 947 *~ 0.1;
#X obj 3065 705 r~ in;
#X obj 3086 899 r q;
#X obj 3075 730 r freq;
#X obj 3075 853 mtof;
#X obj 1940 67 r spread;
#X obj 1913 91 t b;
#X floatatom 1913 117 5 0 0 0 - - -;
#X obj 1936 761 r spread;
#X obj 1909 785 t b;
#X floatatom 1909 811 5 0 0 0 - - -;
#X obj 2239 73 r spread;
#X obj 2212 97 t b;
#X floatatom 2212 123 5 0 0 0 - - -;
#X obj 2244 755 r spread;
#X obj 2217 779 t b;
#X floatatom 2217 805 5 0 0 0 - - -;
#X obj 2535 65 r spread;
#X obj 2508 89 t b;
#X floatatom 2508 115 5 0 0 0 - - -;
#X obj 2540 752 r spread;
#X obj 2513 776 t b;
#X floatatom 2513 802 5 0 0 0 - - -;
#X obj 2800 60 r spread;
#X obj 2773 84 t b;
#X floatatom 2773 110 5 0 0 0 - - -;
#X obj 2803 751 r spread;
#X obj 2776 775 t b;
#X floatatom 2776 801 5 0 0 0 - - -;
#X obj 2217 849 mtof;
#X obj 3098 72 r spread;
#X obj 3071 96 t b;
#X floatatom 3071 122 5 0 0 0 - - -;
#X obj 3107 751 r spread;
#X obj 3075 772 t b;
#X floatatom 3075 798 5 0 0 0 - - -;
#X obj 1940 90 * 5.5;
#X obj 2239 96 * 6.5;
#X obj 2535 88 * 7.5;
#X obj 2800 83 * 8.5;
#X obj 3098 95 * 9.5;
#X obj 1913 138 + 5.5;
#X obj 2212 144 + 6.5;
#X obj 2508 138 + 7.5;
#X obj 2773 131 + 8.5;
#X obj 3071 143 + 9.5;
#X obj 1936 784 * 6;
#X obj 2244 778 * 7;
#X obj 2540 775 * 8;
#X obj 2803 774 * 9;
#X obj 3107 774 * 10;
#X obj 1909 832 + 6;
#X obj 2217 826 + 7;
#X obj 2513 823 + 8;
#X obj 2776 822 + 9;
#X obj 3075 819 + 10;
#X obj 34 604 hsl 128 15 0.1 10 0 0 empty empty empty -2 -8 0 10 -262144
-1 -1 4500 0;
#X obj 563 739 r spread;
#X obj 536 763 t b;
#X floatatom 536 789 5 0 0 0 - - -;
#X obj 536 810 + 1;
#X obj 535 855 clip 20 19000;
#X obj 813 866 clip 20 19000;
#X obj 1078 868 clip 20 19000;
#X obj 1377 871 clip 20 19000;
#X obj 1656 865 clip 20 19000;
#X obj 1910 878 clip 20 19000;
#X obj 2217 874 clip 20 19000;
#X obj 2514 876 clip 20 19000;
#X obj 2778 876 clip 20 19000;
#X obj 3076 876 clip 20 19000;
#X obj 527 95 clip 20 19000;
#X obj 811 187 clip 20 19000;
#X obj 1074 189 clip 20 19000;
#X obj 1372 184 clip 20 19000;
#X obj 1652 183 clip 20 19000;
#X obj 1914 188 clip 20 19000;
#X obj 2212 192 clip 20 19000;
#X obj 2508 191 clip 20 19000;
#X obj 2772 176 clip 20 19000;
#X obj 3070 193 clip 20 19000;
#X obj 109 952 *~;
#X obj 147 951 *~;
#X obj 162 924 vline~;
#X msg 162 902 \$1 20;
#X obj 162 773 r q;
#X obj 48 153 hsl 128 15 0.3 600 0 0 empty empty empty -2 -8 0 10 -262144
-1 -1 12700 1;
#X obj 201 841 expr ($f1 / 100) + 1;
#X obj 161 795 moses 4;
#X obj 162 819 expr ($f1 * 0.25) + 0.25;
#X obj 532 352 snapshot~;
#X obj 360 644 metro 50;
#X obj 360 623 tgl 15 0 empty empty empty 17 7 0 10 -262144 -1 -1 1
1;
#X obj 548 329 r wigglemetro;
#X obj 360 667 s wigglemetro;
#X floatatom 532 397 5 0 0 0 - - -;
#X obj 532 375 expr 1 - ((($f1 + 1) / 2) * $f2);
#X obj 721 354 r wiggle;
#X obj 517 464 *~;
#X obj 532 441 vline~;
#X msg 532 419 \$1 20;
#X obj 360 598 loadbang;
#X obj 73 1097 s wiggle;
#X obj 78 1073 hsl 128 15 0 0.9 0 0 empty empty empty -2 -8 0 10 -262144
-1 -1 12700 0;
#X obj 517 488 throw~ dacL;
#X obj 816 328 snapshot~;
#X obj 832 305 r wigglemetro;
#X floatatom 816 373 5 0 0 0 - - -;
#X obj 816 351 expr 1 - ((($f1 + 1) / 2) * $f2);
#X obj 1005 330 r wiggle;
#X obj 801 440 *~;
#X obj 816 417 vline~;
#X msg 816 395 \$1 20;
#X obj 801 617 throw~ dacL;
#X obj 1079 330 snapshot~;
#X obj 1095 307 r wigglemetro;
#X floatatom 1079 375 5 0 0 0 - - -;
#X obj 1079 353 expr 1 - ((($f1 + 1) / 2) * $f2);
#X obj 1268 332 r wiggle;
#X obj 1064 442 *~;
#X obj 1079 419 vline~;
#X msg 1079 397 \$1 20;
#X obj 1377 331 snapshot~;
#X obj 1393 308 r wigglemetro;
#X floatatom 1377 376 5 0 0 0 - - -;
#X obj 1377 354 expr 1 - ((($f1 + 1) / 2) * $f2);
#X obj 1566 333 r wiggle;
#X obj 1362 443 *~;
#X obj 1377 420 vline~;
#X msg 1377 398 \$1 20;
#X obj 1656 338 snapshot~;
#X obj 1672 315 r wigglemetro;
#X floatatom 1656 383 5 0 0 0 - - -;
#X obj 1656 361 expr 1 - ((($f1 + 1) / 2) * $f2);
#X obj 1845 340 r wiggle;
#X obj 1641 450 *~;
#X obj 1656 427 vline~;
#X msg 1656 405 \$1 20;
#X obj 1919 340 snapshot~;
#X obj 1935 317 r wigglemetro;
#X floatatom 1919 385 5 0 0 0 - - -;
#X obj 1919 363 expr 1 - ((($f1 + 1) / 2) * $f2);
#X obj 2108 342 r wiggle;
#X obj 1904 452 *~;
#X obj 1919 429 vline~;
#X msg 1919 407 \$1 20;
#X obj 2217 341 snapshot~;
#X obj 2233 318 r wigglemetro;
#X floatatom 2217 386 5 0 0 0 - - -;
#X obj 2217 364 expr 1 - ((($f1 + 1) / 2) * $f2);
#X obj 2406 343 r wiggle;
#X obj 2202 453 *~;
#X obj 2217 430 vline~;
#X msg 2217 408 \$1 20;
#X obj 2517 342 snapshot~;
#X obj 2533 319 r wigglemetro;
#X floatatom 2517 387 5 0 0 0 - - -;
#X obj 2517 365 expr 1 - ((($f1 + 1) / 2) * $f2);
#X obj 2706 344 r wiggle;
#X obj 2502 454 *~;
#X obj 2517 431 vline~;
#X msg 2517 409 \$1 20;
#X obj 2780 344 snapshot~;
#X obj 2796 321 r wigglemetro;
#X floatatom 2780 389 5 0 0 0 - - -;
#X obj 2780 367 expr 1 - ((($f1 + 1) / 2) * $f2);
#X obj 2969 346 r wiggle;
#X obj 2765 456 *~;
#X obj 2780 433 vline~;
#X msg 2780 411 \$1 20;
#X obj 3078 345 snapshot~;
#X obj 3094 322 r wigglemetro;
#X floatatom 3078 390 5 0 0 0 - - -;
#X obj 3078 368 expr 1 - ((($f1 + 1) / 2) * $f2);
#X obj 3267 347 r wiggle;
#X obj 3063 457 *~;
#X obj 3078 434 vline~;
#X msg 3078 412 \$1 20;
#X obj 1064 261 *~ 0.1;
#X obj 801 259 *~ 0.1;
#X obj 532 307 osc~ 0.1;
#X obj 78 70 noise~;
#X obj 644 349 / 100;
#X obj 228 587 tgl 15 0 empty empty empty 17 7 0 10 -262144 -1 -1 1
1;
#X obj 644 328 random 50;
#X obj 227 609 metro 3000;
#X obj 44 194 clip 0.3 600;
#X obj 227 631 s wigglechange;
#X obj 644 307 r wigglechange;
#X obj 924 327 / 100;
#X obj 924 306 random 50;
#X obj 924 285 r wigglechange;
#X obj 1193 328 / 100;
#X obj 1193 307 random 50;
#X obj 1193 286 r wigglechange;
#X obj 1488 330 / 100;
#X obj 1488 309 random 50;
#X obj 1488 288 r wigglechange;
#X obj 1763 334 / 100;
#X obj 1763 313 random 50;
#X obj 1763 292 r wigglechange;
#X obj 2035 336 / 100;
#X obj 2035 315 random 50;
#X obj 2035 294 r wigglechange;
#X obj 2324 337 / 100;
#X obj 2324 316 random 50;
#X obj 2324 295 r wigglechange;
#X obj 2627 338 / 100;
#X obj 2627 317 random 50;
#X obj 2627 296 r wigglechange;
#X obj 2897 339 / 100;
#X obj 2897 318 random 50;
#X obj 2897 297 r wigglechange;
#X obj 3189 343 / 100;
#X obj 3189 322 random 50;
#X obj 3189 301 r wigglechange;
#X obj 3078 301 osc~ 0.1;
#X obj 2780 300 osc~ 0.1;
#X obj 2517 297 osc~ 0.1;
#X obj 2217 297 osc~ 0.1;
#X obj 1919 296 osc~ 0.1;
#X obj 1655 293 osc~ 0.1;
#X obj 1377 287 osc~ 0.1;
#X obj 1079 286 osc~ 0.1;
#X obj 816 283 osc~ 0.1;
#X obj 540 1001 snapshot~;
#X obj 556 978 r wigglemetro;
#X floatatom 540 1046 5 0 0 0 - - -;
#X obj 540 1024 expr 1 - ((($f1 + 1) / 2) * $f2);
#X obj 729 1003 r wiggle;
#X obj 525 1113 *~;
#X obj 540 1090 vline~;
#X msg 540 1068 \$1 20;
#X obj 540 956 osc~ 0.1;
#X obj 652 998 / 100;
#X obj 652 977 random 50;
#X obj 652 956 r wigglechange;
#X obj 815 1010 snapshot~;
#X obj 831 987 r wigglemetro;
#X floatatom 815 1055 5 0 0 0 - - -;
#X obj 815 1033 expr 1 - ((($f1 + 1) / 2) * $f2);
#X obj 1004 1012 r wiggle;
#X obj 800 1122 *~;
#X obj 815 1099 vline~;
#X msg 815 1077 \$1 20;
#X obj 1078 1012 snapshot~;
#X obj 1094 989 r wigglemetro;
#X floatatom 1078 1057 5 0 0 0 - - -;
#X obj 1078 1035 expr 1 - ((($f1 + 1) / 2) * $f2);
#X obj 1267 1014 r wiggle;
#X obj 1063 1124 *~;
#X obj 1078 1101 vline~;
#X msg 1078 1079 \$1 20;
#X obj 1376 1013 snapshot~;
#X obj 1392 990 r wigglemetro;
#X floatatom 1376 1058 5 0 0 0 - - -;
#X obj 1376 1036 expr 1 - ((($f1 + 1) / 2) * $f2);
#X obj 1565 1015 r wiggle;
#X obj 1361 1125 *~;
#X obj 1376 1102 vline~;
#X msg 1376 1080 \$1 20;
#X obj 1655 1020 snapshot~;
#X obj 1671 997 r wigglemetro;
#X floatatom 1655 1065 5 0 0 0 - - -;
#X obj 1655 1043 expr 1 - ((($f1 + 1) / 2) * $f2);
#X obj 1844 1022 r wiggle;
#X obj 1640 1132 *~;
#X obj 1655 1109 vline~;
#X msg 1655 1087 \$1 20;
#X obj 1918 1022 snapshot~;
#X obj 1934 999 r wigglemetro;
#X floatatom 1918 1067 5 0 0 0 - - -;
#X obj 1918 1045 expr 1 - ((($f1 + 1) / 2) * $f2);
#X obj 2107 1024 r wiggle;
#X obj 1903 1134 *~;
#X obj 1918 1111 vline~;
#X msg 1918 1089 \$1 20;
#X obj 2216 1023 snapshot~;
#X obj 2232 1000 r wigglemetro;
#X floatatom 2216 1068 5 0 0 0 - - -;
#X obj 2216 1046 expr 1 - ((($f1 + 1) / 2) * $f2);
#X obj 2405 1025 r wiggle;
#X obj 2201 1135 *~;
#X obj 2216 1112 vline~;
#X msg 2216 1090 \$1 20;
#X obj 2516 1024 snapshot~;
#X obj 2532 1001 r wigglemetro;
#X floatatom 2516 1069 5 0 0 0 - - -;
#X obj 2516 1047 expr 1 - ((($f1 + 1) / 2) * $f2);
#X obj 2705 1026 r wiggle;
#X obj 2501 1136 *~;
#X obj 2516 1113 vline~;
#X msg 2516 1091 \$1 20;
#X obj 2779 1026 snapshot~;
#X obj 2795 1003 r wigglemetro;
#X floatatom 2779 1071 5 0 0 0 - - -;
#X obj 2779 1049 expr 1 - ((($f1 + 1) / 2) * $f2);
#X obj 2968 1028 r wiggle;
#X obj 2764 1138 *~;
#X obj 2779 1115 vline~;
#X msg 2779 1093 \$1 20;
#X obj 3077 1027 snapshot~;
#X obj 3093 1004 r wigglemetro;
#X floatatom 3077 1072 5 0 0 0 - - -;
#X obj 3077 1050 expr 1 - ((($f1 + 1) / 2) * $f2);
#X obj 3266 1029 r wiggle;
#X obj 3062 1139 *~;
#X obj 3077 1116 vline~;
#X msg 3077 1094 \$1 20;
#X obj 923 1009 / 100;
#X obj 923 988 random 50;
#X obj 923 967 r wigglechange;
#X obj 1192 1010 / 100;
#X obj 1192 989 random 50;
#X obj 1192 968 r wigglechange;
#X obj 1487 1012 / 100;
#X obj 1487 991 random 50;
#X obj 1487 970 r wigglechange;
#X obj 1762 1016 / 100;
#X obj 1762 995 random 50;
#X obj 1762 974 r wigglechange;
#X obj 2034 1018 / 100;
#X obj 2034 997 random 50;
#X obj 2034 976 r wigglechange;
#X obj 2323 1019 / 100;
#X obj 2323 998 random 50;
#X obj 2323 977 r wigglechange;
#X obj 2626 1020 / 100;
#X obj 2626 999 random 50;
#X obj 2626 978 r wigglechange;
#X obj 2896 1021 / 100;
#X obj 2896 1000 random 50;
#X obj 2896 979 r wigglechange;
#X obj 3188 1025 / 100;
#X obj 3188 1004 random 50;
#X obj 3188 983 r wigglechange;
#X obj 3077 983 osc~ 0.1;
#X obj 2779 982 osc~ 0.1;
#X obj 2516 979 osc~ 0.1;
#X obj 2216 979 osc~ 0.1;
#X obj 1918 978 osc~ 0.1;
#X obj 1654 975 osc~ 0.1;
#X obj 1376 969 osc~ 0.1;
#X obj 1078 968 osc~ 0.1;
#X obj 815 965 osc~ 0.1;
#X obj 227 562 loadbang;
#X obj 71 1188 hsl 128 15 2 20 0 0 empty empty empty -2 -8 0 10 -262144
-1 -1 12700 1;
#X obj 68 1209 i;
#X obj 816 505 t b;
#X obj 855 531 t b;
#X obj 816 462 r nobands;
#X obj 68 1231 s nobands;
#X msg 816 526 0;
#X msg 855 551 1;
#X msg 816 549 \$1 20;
#X obj 816 571 vline~;
#X obj 801 595 *~;
#X obj 816 484 moses 3;
#X floatatom 99 1210 5 0 0 0 - - -;
#X obj 1065 621 throw~ dacL;
#X obj 1080 509 t b;
#X obj 1119 535 t b;
#X obj 1080 466 r nobands;
#X msg 1080 530 0;
#X msg 1119 555 1;
#X msg 1080 553 \$1 20;
#X obj 1080 575 vline~;
#X obj 1065 599 *~;
#X obj 1368 623 throw~ dacL;
#X obj 1383 511 t b;
#X obj 1422 537 t b;
#X obj 1383 468 r nobands;
#X msg 1383 532 0;
#X msg 1422 557 1;
#X msg 1383 555 \$1 20;
#X obj 1383 577 vline~;
#X obj 1368 601 *~;
#X obj 1641 629 throw~ dacL;
#X obj 1656 517 t b;
#X obj 1695 543 t b;
#X obj 1656 474 r nobands;
#X msg 1656 538 0;
#X msg 1695 563 1;
#X msg 1656 561 \$1 20;
#X obj 1656 583 vline~;
#X obj 1641 607 *~;
#X obj 1903 629 throw~ dacL;
#X obj 1918 517 t b;
#X obj 1957 543 t b;
#X obj 1918 474 r nobands;
#X msg 1918 538 0;
#X msg 1957 563 1;
#X msg 1918 561 \$1 20;
#X obj 1918 583 vline~;
#X obj 1903 607 *~;
#X obj 2202 633 throw~ dacL;
#X obj 2217 521 t b;
#X obj 2256 547 t b;
#X obj 2217 478 r nobands;
#X msg 2217 542 0;
#X msg 2256 567 1;
#X msg 2217 565 \$1 20;
#X obj 2217 587 vline~;
#X obj 2202 611 *~;
#X obj 2502 634 throw~ dacL;
#X obj 2517 522 t b;
#X obj 2556 548 t b;
#X obj 2517 479 r nobands;
#X msg 2517 543 0;
#X msg 2556 568 1;
#X msg 2517 566 \$1 20;
#X obj 2517 588 vline~;
#X obj 2502 612 *~;
#X obj 2765 638 throw~ dacL;
#X obj 2780 526 t b;
#X obj 2819 552 t b;
#X obj 2780 483 r nobands;
#X msg 2780 547 0;
#X msg 2819 572 1;
#X msg 2780 570 \$1 20;
#X obj 2780 592 vline~;
#X obj 2765 616 *~;
#X obj 3063 637 throw~ dacL;
#X obj 3078 525 t b;
#X obj 3117 551 t b;
#X obj 3078 482 r nobands;
#X msg 3078 546 0;
#X msg 3117 571 1;
#X msg 3078 569 \$1 20;
#X obj 3078 591 vline~;
#X obj 3063 615 *~;
#X obj 1080 488 moses 5;
#X obj 1382 490 moses 7;
#X obj 1656 496 moses 9;
#X obj 1918 496 moses 11;
#X obj 2217 500 moses 13;
#X obj 2517 501 moses 15;
#X obj 2780 505 moses 17;
#X obj 3078 504 moses 19;
#X obj 525 1141 throw~ dacR;
#X obj 813 1194 t b;
#X obj 852 1220 t b;
#X obj 813 1151 r nobands;
#X msg 813 1215 0;
#X msg 852 1240 1;
#X msg 813 1238 \$1 20;
#X obj 813 1260 vline~;
#X obj 798 1284 *~;
#X obj 1077 1198 t b;
#X obj 1116 1224 t b;
#X obj 1077 1155 r nobands;
#X msg 1077 1219 0;
#X msg 1116 1244 1;
#X msg 1077 1242 \$1 20;
#X obj 1077 1264 vline~;
#X obj 1062 1288 *~;
#X obj 1380 1200 t b;
#X obj 1419 1226 t b;
#X obj 1380 1157 r nobands;
#X msg 1380 1221 0;
#X msg 1419 1246 1;
#X msg 1380 1244 \$1 20;
#X obj 1380 1266 vline~;
#X obj 1365 1290 *~;
#X obj 1653 1206 t b;
#X obj 1692 1232 t b;
#X obj 1653 1163 r nobands;
#X msg 1653 1227 0;
#X msg 1692 1252 1;
#X msg 1653 1250 \$1 20;
#X obj 1653 1272 vline~;
#X obj 1638 1296 *~;
#X obj 1915 1206 t b;
#X obj 1954 1232 t b;
#X obj 1915 1163 r nobands;
#X msg 1915 1227 0;
#X msg 1954 1252 1;
#X msg 1915 1250 \$1 20;
#X obj 1915 1272 vline~;
#X obj 1900 1296 *~;
#X obj 2214 1210 t b;
#X obj 2253 1236 t b;
#X obj 2214 1167 r nobands;
#X msg 2214 1231 0;
#X msg 2253 1256 1;
#X msg 2214 1254 \$1 20;
#X obj 2214 1276 vline~;
#X obj 2199 1300 *~;
#X obj 2514 1211 t b;
#X obj 2553 1237 t b;
#X obj 2514 1168 r nobands;
#X msg 2514 1232 0;
#X msg 2553 1257 1;
#X msg 2514 1255 \$1 20;
#X obj 2514 1277 vline~;
#X obj 2499 1301 *~;
#X obj 2777 1215 t b;
#X obj 2816 1241 t b;
#X obj 2777 1172 r nobands;
#X msg 2777 1236 0;
#X msg 2816 1261 1;
#X msg 2777 1259 \$1 20;
#X obj 2777 1281 vline~;
#X obj 2762 1305 *~;
#X obj 3075 1214 t b;
#X obj 3075 1171 r nobands;
#X msg 3075 1235 0;
#X msg 3075 1258 \$1 20;
#X obj 3075 1280 vline~;
#X obj 3060 1304 *~;
#X obj 798 1306 throw~ dacR;
#X obj 1062 1310 throw~ dacR;
#X obj 1365 1312 throw~ dacR;
#X obj 1638 1318 throw~ dacR;
#X obj 1900 1318 throw~ dacR;
#X obj 2199 1322 throw~ dacR;
#X obj 2499 1323 throw~ dacR;
#X obj 2762 1327 throw~ dacR;
#X obj 3060 1326 throw~ dacR;
#X obj 813 1173 moses 4;
#X obj 1077 1177 moses 6;
#X obj 1379 1179 moses 8;
#X obj 1653 1185 moses 10;
#X obj 1915 1185 moses 12;
#X obj 2214 1189 moses 14;
#X obj 2514 1190 moses 16;
#X obj 2777 1194 moses 18;
#X obj 3075 1193 moses 20;
#X obj 47 338 expr (($f1 / 4095) * 120) + 12;
#X connect 0 0 2 0;
#X connect 2 0 260 0;
#X connect 4 0 0 0;
#X connect 6 0 348 0;
#X connect 7 0 0 2;
#X connect 8 0 690 0;
#X connect 10 0 13 0;
#X connect 11 0 243 0;
#X connect 12 0 244 0;
#X connect 13 0 233 0;
#X connect 14 0 15 0;
#X connect 15 0 392 0;
#X connect 16 0 14 0;
#X connect 17 0 14 2;
#X connect 18 0 221 0;
#X connect 19 0 223 0;
#X connect 20 0 341 0;
#X connect 21 0 20 0;
#X connect 22 0 20 2;
#X connect 23 0 107 0;
#X connect 24 0 234 0;
#X connect 25 0 26 0;
#X connect 26 0 404 0;
#X connect 27 0 25 0;
#X connect 28 0 25 2;
#X connect 29 0 110 0;
#X connect 30 0 224 0;
#X connect 31 0 340 0;
#X connect 32 0 31 0;
#X connect 33 0 31 2;
#X connect 35 0 235 0;
#X connect 36 0 37 0;
#X connect 37 0 412 0;
#X connect 38 0 36 0;
#X connect 39 0 36 2;
#X connect 40 0 118 0;
#X connect 41 0 225 0;
#X connect 42 0 43 0;
#X connect 43 0 289 0;
#X connect 44 0 42 0;
#X connect 45 0 42 2;
#X connect 46 0 125 0;
#X connect 47 0 236 0;
#X connect 48 0 49 0;
#X connect 49 0 420 0;
#X connect 50 0 48 0;
#X connect 51 0 48 2;
#X connect 52 0 128 0;
#X connect 53 0 226 0;
#X connect 54 0 55 0;
#X connect 55 0 297 0;
#X connect 56 0 54 0;
#X connect 57 0 54 2;
#X connect 58 0 131 0;
#X connect 59 0 237 0;
#X connect 60 0 61 0;
#X connect 61 0 428 0;
#X connect 62 0 60 0;
#X connect 63 0 60 2;
#X connect 64 0 134 0;
#X connect 65 0 227 0;
#X connect 66 0 67 0;
#X connect 67 0 305 0;
#X connect 68 0 66 0;
#X connect 69 0 66 2;
#X connect 70 0 169 0;
#X connect 71 0 238 0;
#X connect 72 0 73 0;
#X connect 73 0 436 0;
#X connect 74 0 72 0;
#X connect 75 0 72 2;
#X connect 76 0 172 0;
#X connect 77 0 228 0;
#X connect 78 0 79 0;
#X connect 79 0 313 0;
#X connect 80 0 78 0;
#X connect 81 0 78 2;
#X connect 82 0 175 0;
#X connect 83 0 239 0;
#X connect 84 0 85 0;
#X connect 85 0 444 0;
#X connect 86 0 84 0;
#X connect 87 0 84 2;
#X connect 88 0 178 0;
#X connect 89 0 90 0;
#X connect 90 0 321 0;
#X connect 91 0 89 0;
#X connect 92 0 89 2;
#X connect 93 0 181 0;
#X connect 94 0 240 0;
#X connect 95 0 96 0;
#X connect 96 0 452 0;
#X connect 97 0 95 0;
#X connect 98 0 95 2;
#X connect 99 0 184 0;
#X connect 100 0 230 0;
#X connect 101 0 102 0;
#X connect 101 0 106 0;
#X connect 102 0 103 1;
#X connect 103 0 24 0;
#X connect 105 0 104 0;
#X connect 106 0 107 0;
#X connect 107 0 103 0;
#X connect 108 0 109 0;
#X connect 108 0 111 0;
#X connect 109 0 110 0;
#X connect 110 0 112 0;
#X connect 111 0 112 1;
#X connect 112 0 30 0;
#X connect 113 0 114 0;
#X connect 113 0 121 0;
#X connect 114 0 115 0;
#X connect 115 0 122 0;
#X connect 116 0 117 0;
#X connect 116 0 119 0;
#X connect 117 0 118 0;
#X connect 118 0 120 0;
#X connect 119 0 120 1;
#X connect 120 0 41 0;
#X connect 121 0 122 1;
#X connect 122 0 35 0;
#X connect 123 0 124 0;
#X connect 123 0 135 0;
#X connect 124 0 125 0;
#X connect 125 0 136 0;
#X connect 126 0 127 0;
#X connect 126 0 139 0;
#X connect 127 0 128 0;
#X connect 128 0 140 0;
#X connect 129 0 130 0;
#X connect 129 0 137 0;
#X connect 130 0 131 0;
#X connect 131 0 138 0;
#X connect 132 0 133 0;
#X connect 132 0 141 0;
#X connect 133 0 134 0;
#X connect 134 0 142 0;
#X connect 135 0 136 1;
#X connect 136 0 47 0;
#X connect 137 0 138 1;
#X connect 138 0 59 0;
#X connect 139 0 140 1;
#X connect 140 0 53 0;
#X connect 141 0 142 1;
#X connect 142 0 65 0;
#X connect 143 0 144 0;
#X connect 144 0 329 0;
#X connect 145 0 143 0;
#X connect 146 0 143 2;
#X connect 147 0 187 0;
#X connect 148 0 241 0;
#X connect 149 0 150 0;
#X connect 150 0 460 0;
#X connect 151 0 149 0;
#X connect 152 0 149 2;
#X connect 153 0 190 0;
#X connect 154 0 231 0;
#X connect 155 0 156 0;
#X connect 156 0 337 0;
#X connect 157 0 155 0;
#X connect 158 0 155 2;
#X connect 159 0 194 0;
#X connect 160 0 242 0;
#X connect 161 0 162 0;
#X connect 162 0 468 0;
#X connect 163 0 161 0;
#X connect 164 0 161 2;
#X connect 165 0 197 0;
#X connect 166 0 232 0;
#X connect 167 0 168 0;
#X connect 167 0 198 0;
#X connect 168 0 169 0;
#X connect 169 0 203 0;
#X connect 170 0 171 0;
#X connect 170 0 208 0;
#X connect 171 0 172 0;
#X connect 172 0 213 0;
#X connect 173 0 174 0;
#X connect 173 0 199 0;
#X connect 174 0 175 0;
#X connect 175 0 204 0;
#X connect 176 0 177 0;
#X connect 176 0 209 0;
#X connect 177 0 178 0;
#X connect 178 0 214 0;
#X connect 179 0 180 0;
#X connect 179 0 200 0;
#X connect 180 0 181 0;
#X connect 181 0 205 0;
#X connect 182 0 183 0;
#X connect 182 0 210 0;
#X connect 183 0 184 0;
#X connect 184 0 215 0;
#X connect 185 0 186 0;
#X connect 185 0 201 0;
#X connect 186 0 187 0;
#X connect 187 0 206 0;
#X connect 188 0 189 0;
#X connect 188 0 211 0;
#X connect 189 0 190 0;
#X connect 190 0 216 0;
#X connect 191 0 229 0;
#X connect 192 0 193 0;
#X connect 192 0 202 0;
#X connect 193 0 194 0;
#X connect 194 0 207 0;
#X connect 195 0 196 0;
#X connect 195 0 212 0;
#X connect 196 0 197 0;
#X connect 197 0 217 0;
#X connect 198 0 203 1;
#X connect 199 0 204 1;
#X connect 200 0 205 1;
#X connect 201 0 206 1;
#X connect 202 0 207 1;
#X connect 203 0 71 0;
#X connect 204 0 83 0;
#X connect 205 0 94 0;
#X connect 206 0 148 0;
#X connect 207 0 160 0;
#X connect 208 0 213 1;
#X connect 209 0 214 1;
#X connect 210 0 215 1;
#X connect 211 0 216 1;
#X connect 212 0 217 1;
#X connect 213 0 77 0;
#X connect 214 0 191 0;
#X connect 215 0 100 0;
#X connect 216 0 154 0;
#X connect 217 0 166 0;
#X connect 218 0 105 0;
#X connect 219 0 220 0;
#X connect 219 0 222 1;
#X connect 220 0 221 0;
#X connect 221 0 222 0;
#X connect 222 0 19 0;
#X connect 223 0 14 1;
#X connect 224 0 25 1;
#X connect 225 0 36 1;
#X connect 226 0 48 1;
#X connect 227 0 60 1;
#X connect 228 0 72 1;
#X connect 229 0 84 1;
#X connect 230 0 95 1;
#X connect 231 0 149 1;
#X connect 232 0 161 1;
#X connect 233 0 0 1;
#X connect 234 0 20 1;
#X connect 235 0 31 1;
#X connect 236 0 42 1;
#X connect 237 0 54 1;
#X connect 238 0 66 1;
#X connect 239 0 78 1;
#X connect 240 0 89 1;
#X connect 241 0 143 1;
#X connect 242 0 155 1;
#X connect 243 0 1 0;
#X connect 244 0 1 1;
#X connect 245 0 244 1;
#X connect 245 0 243 1;
#X connect 246 0 245 0;
#X connect 247 0 250 0;
#X connect 248 0 6 0;
#X connect 249 0 246 0;
#X connect 250 0 251 0;
#X connect 250 1 249 0;
#X connect 251 0 246 0;
#X connect 252 0 258 0;
#X connect 253 0 256 0;
#X connect 254 0 253 0;
#X connect 255 0 252 0;
#X connect 257 0 262 0;
#X connect 258 0 257 0;
#X connect 259 0 258 1;
#X connect 260 0 266 0;
#X connect 261 0 260 1;
#X connect 262 0 261 0;
#X connect 263 0 254 0;
#X connect 265 0 264 0;
#X connect 267 0 270 0;
#X connect 268 0 267 0;
#X connect 269 0 274 0;
#X connect 270 0 269 0;
#X connect 271 0 270 1;
#X connect 272 0 518 0;
#X connect 273 0 272 1;
#X connect 274 0 273 0;
#X connect 276 0 279 0;
#X connect 277 0 276 0;
#X connect 278 0 283 0;
#X connect 279 0 278 0;
#X connect 280 0 279 1;
#X connect 281 0 529 0;
#X connect 282 0 281 1;
#X connect 283 0 282 0;
#X connect 284 0 287 0;
#X connect 285 0 284 0;
#X connect 286 0 291 0;
#X connect 287 0 286 0;
#X connect 288 0 287 1;
#X connect 289 0 538 0;
#X connect 290 0 289 1;
#X connect 291 0 290 0;
#X connect 292 0 295 0;
#X connect 293 0 292 0;
#X connect 294 0 299 0;
#X connect 295 0 294 0;
#X connect 296 0 295 1;
#X connect 297 0 547 0;
#X connect 298 0 297 1;
#X connect 299 0 298 0;
#X connect 300 0 303 0;
#X connect 301 0 300 0;
#X connect 302 0 307 0;
#X connect 303 0 302 0;
#X connect 304 0 303 1;
#X connect 305 0 556 0;
#X connect 306 0 305 1;
#X connect 307 0 306 0;
#X connect 308 0 311 0;
#X connect 309 0 308 0;
#X connect 310 0 315 0;
#X connect 311 0 310 0;
#X connect 312 0 311 1;
#X connect 313 0 565 0;
#X connect 314 0 313 1;
#X connect 315 0 314 0;
#X connect 316 0 319 0;
#X connect 317 0 316 0;
#X connect 318 0 323 0;
#X connect 319 0 318 0;
#X connect 320 0 319 1;
#X connect 321 0 574 0;
#X connect 322 0 321 1;
#X connect 323 0 322 0;
#X connect 324 0 327 0;
#X connect 325 0 324 0;
#X connect 326 0 331 0;
#X connect 327 0 326 0;
#X connect 328 0 327 1;
#X connect 329 0 583 0;
#X connect 330 0 329 1;
#X connect 331 0 330 0;
#X connect 332 0 335 0;
#X connect 333 0 332 0;
#X connect 334 0 339 0;
#X connect 335 0 334 0;
#X connect 336 0 335 1;
#X connect 337 0 592 0;
#X connect 338 0 337 1;
#X connect 339 0 338 0;
#X connect 340 0 281 0;
#X connect 341 0 272 0;
#X connect 342 0 252 0;
#X connect 343 0 3 0;
#X connect 344 0 342 0;
#X connect 345 0 347 0;
#X connect 346 0 344 0;
#X connect 347 0 349 0;
#X connect 348 0 5 0;
#X connect 350 0 346 0;
#X connect 351 0 386 0;
#X connect 352 0 351 0;
#X connect 353 0 352 0;
#X connect 354 0 385 0;
#X connect 355 0 354 0;
#X connect 356 0 355 0;
#X connect 357 0 384 0;
#X connect 358 0 357 0;
#X connect 359 0 358 0;
#X connect 360 0 383 0;
#X connect 361 0 360 0;
#X connect 362 0 361 0;
#X connect 363 0 382 0;
#X connect 364 0 363 0;
#X connect 365 0 364 0;
#X connect 366 0 381 0;
#X connect 367 0 366 0;
#X connect 368 0 367 0;
#X connect 369 0 380 0;
#X connect 370 0 369 0;
#X connect 371 0 370 0;
#X connect 372 0 379 0;
#X connect 373 0 372 0;
#X connect 374 0 373 0;
#X connect 375 0 378 0;
#X connect 376 0 375 0;
#X connect 377 0 376 0;
#X connect 378 0 332 0;
#X connect 379 0 324 0;
#X connect 380 0 316 0;
#X connect 381 0 308 0;
#X connect 382 0 300 0;
#X connect 383 0 292 0;
#X connect 384 0 284 0;
#X connect 385 0 276 0;
#X connect 386 0 267 0;
#X connect 387 0 390 0;
#X connect 388 0 387 0;
#X connect 389 0 394 0;
#X connect 390 0 389 0;
#X connect 391 0 390 1;
#X connect 392 0 601 0;
#X connect 393 0 392 1;
#X connect 394 0 393 0;
#X connect 395 0 387 0;
#X connect 396 0 395 0;
#X connect 397 0 396 0;
#X connect 398 0 397 0;
#X connect 399 0 402 0;
#X connect 400 0 399 0;
#X connect 401 0 406 0;
#X connect 402 0 401 0;
#X connect 403 0 402 1;
#X connect 404 0 609 0;
#X connect 405 0 404 1;
#X connect 406 0 405 0;
#X connect 407 0 410 0;
#X connect 408 0 407 0;
#X connect 409 0 414 0;
#X connect 410 0 409 0;
#X connect 411 0 410 1;
#X connect 412 0 617 0;
#X connect 413 0 412 1;
#X connect 414 0 413 0;
#X connect 415 0 418 0;
#X connect 416 0 415 0;
#X connect 417 0 422 0;
#X connect 418 0 417 0;
#X connect 419 0 418 1;
#X connect 420 0 625 0;
#X connect 421 0 420 1;
#X connect 422 0 421 0;
#X connect 423 0 426 0;
#X connect 424 0 423 0;
#X connect 425 0 430 0;
#X connect 426 0 425 0;
#X connect 427 0 426 1;
#X connect 428 0 633 0;
#X connect 429 0 428 1;
#X connect 430 0 429 0;
#X connect 431 0 434 0;
#X connect 432 0 431 0;
#X connect 433 0 438 0;
#X connect 434 0 433 0;
#X connect 435 0 434 1;
#X connect 436 0 641 0;
#X connect 437 0 436 1;
#X connect 438 0 437 0;
#X connect 439 0 442 0;
#X connect 440 0 439 0;
#X connect 441 0 446 0;
#X connect 442 0 441 0;
#X connect 443 0 442 1;
#X connect 444 0 649 0;
#X connect 445 0 444 1;
#X connect 446 0 445 0;
#X connect 447 0 450 0;
#X connect 448 0 447 0;
#X connect 449 0 454 0;
#X connect 450 0 449 0;
#X connect 451 0 450 1;
#X connect 452 0 657 0;
#X connect 453 0 452 1;
#X connect 454 0 453 0;
#X connect 455 0 458 0;
#X connect 456 0 455 0;
#X connect 457 0 462 0;
#X connect 458 0 457 0;
#X connect 459 0 458 1;
#X connect 460 0 665 0;
#X connect 461 0 460 1;
#X connect 462 0 461 0;
#X connect 463 0 466 0;
#X connect 464 0 463 0;
#X connect 465 0 470 0;
#X connect 466 0 465 0;
#X connect 467 0 466 1;
#X connect 468 0 671 0;
#X connect 469 0 468 1;
#X connect 470 0 469 0;
#X connect 471 0 506 0;
#X connect 472 0 471 0;
#X connect 473 0 472 0;
#X connect 474 0 505 0;
#X connect 475 0 474 0;
#X connect 476 0 475 0;
#X connect 477 0 504 0;
#X connect 478 0 477 0;
#X connect 479 0 478 0;
#X connect 480 0 503 0;
#X connect 481 0 480 0;
#X connect 482 0 481 0;
#X connect 483 0 502 0;
#X connect 484 0 483 0;
#X connect 485 0 484 0;
#X connect 486 0 501 0;
#X connect 487 0 486 0;
#X connect 488 0 487 0;
#X connect 489 0 500 0;
#X connect 490 0 489 0;
#X connect 491 0 490 0;
#X connect 492 0 499 0;
#X connect 493 0 492 0;
#X connect 494 0 493 0;
#X connect 495 0 498 0;
#X connect 496 0 495 0;
#X connect 497 0 496 0;
#X connect 498 0 463 0;
#X connect 499 0 455 0;
#X connect 500 0 447 0;
#X connect 501 0 439 0;
#X connect 502 0 431 0;
#X connect 503 0 423 0;
#X connect 504 0 415 0;
#X connect 505 0 407 0;
#X connect 506 0 399 0;
#X connect 507 0 345 0;
#X connect 508 0 509 0;
#X connect 509 0 513 0;
#X connect 509 0 520 0;
#X connect 510 0 514 0;
#X connect 511 0 515 0;
#X connect 512 0 519 0;
#X connect 514 0 516 0;
#X connect 515 0 516 0;
#X connect 516 0 517 0;
#X connect 517 0 518 1;
#X connect 518 0 275 0;
#X connect 519 0 510 0;
#X connect 519 1 511 0;
#X connect 522 0 525 0;
#X connect 523 0 526 0;
#X connect 524 0 593 0;
#X connect 525 0 527 0;
#X connect 526 0 527 0;
#X connect 527 0 528 0;
#X connect 528 0 529 1;
#X connect 529 0 521 0;
#X connect 531 0 534 0;
#X connect 532 0 535 0;
#X connect 533 0 594 0;
#X connect 534 0 536 0;
#X connect 535 0 536 0;
#X connect 536 0 537 0;
#X connect 537 0 538 1;
#X connect 538 0 530 0;
#X connect 540 0 543 0;
#X connect 541 0 544 0;
#X connect 542 0 595 0;
#X connect 543 0 545 0;
#X connect 544 0 545 0;
#X connect 545 0 546 0;
#X connect 546 0 547 1;
#X connect 547 0 539 0;
#X connect 549 0 552 0;
#X connect 550 0 553 0;
#X connect 551 0 596 0;
#X connect 552 0 554 0;
#X connect 553 0 554 0;
#X connect 554 0 555 0;
#X connect 555 0 556 1;
#X connect 556 0 548 0;
#X connect 558 0 561 0;
#X connect 559 0 562 0;
#X connect 560 0 597 0;
#X connect 561 0 563 0;
#X connect 562 0 563 0;
#X connect 563 0 564 0;
#X connect 564 0 565 1;
#X connect 565 0 557 0;
#X connect 567 0 570 0;
#X connect 568 0 571 0;
#X connect 569 0 598 0;
#X connect 570 0 572 0;
#X connect 571 0 572 0;
#X connect 572 0 573 0;
#X connect 573 0 574 1;
#X connect 574 0 566 0;
#X connect 576 0 579 0;
#X connect 577 0 580 0;
#X connect 578 0 599 0;
#X connect 579 0 581 0;
#X connect 580 0 581 0;
#X connect 581 0 582 0;
#X connect 582 0 583 1;
#X connect 583 0 575 0;
#X connect 585 0 588 0;
#X connect 586 0 589 0;
#X connect 587 0 600 0;
#X connect 588 0 590 0;
#X connect 589 0 590 0;
#X connect 590 0 591 0;
#X connect 591 0 592 1;
#X connect 592 0 584 0;
#X connect 593 0 522 0;
#X connect 593 1 523 0;
#X connect 594 0 531 0;
#X connect 594 1 532 0;
#X connect 595 0 540 0;
#X connect 595 1 541 0;
#X connect 596 0 549 0;
#X connect 596 1 550 0;
#X connect 597 0 558 0;
#X connect 597 1 559 0;
#X connect 598 0 567 0;
#X connect 598 1 568 0;
#X connect 599 0 576 0;
#X connect 599 1 577 0;
#X connect 600 0 585 0;
#X connect 600 1 586 0;
#X connect 602 0 605 0;
#X connect 603 0 606 0;
#X connect 604 0 681 0;
#X connect 605 0 607 0;
#X connect 606 0 607 0;
#X connect 607 0 608 0;
#X connect 608 0 609 1;
#X connect 609 0 672 0;
#X connect 610 0 613 0;
#X connect 611 0 614 0;
#X connect 612 0 682 0;
#X connect 613 0 615 0;
#X connect 614 0 615 0;
#X connect 615 0 616 0;
#X connect 616 0 617 1;
#X connect 617 0 673 0;
#X connect 618 0 621 0;
#X connect 619 0 622 0;
#X connect 620 0 683 0;
#X connect 621 0 623 0;
#X connect 622 0 623 0;
#X connect 623 0 624 0;
#X connect 624 0 625 1;
#X connect 625 0 674 0;
#X connect 626 0 629 0;
#X connect 627 0 630 0;
#X connect 628 0 684 0;
#X connect 629 0 631 0;
#X connect 630 0 631 0;
#X connect 631 0 632 0;
#X connect 632 0 633 1;
#X connect 633 0 675 0;
#X connect 634 0 637 0;
#X connect 635 0 638 0;
#X connect 636 0 685 0;
#X connect 637 0 639 0;
#X connect 638 0 639 0;
#X connect 639 0 640 0;
#X connect 640 0 641 1;
#X connect 641 0 676 0;
#X connect 642 0 645 0;
#X connect 643 0 646 0;
#X connect 644 0 686 0;
#X connect 645 0 647 0;
#X connect 646 0 647 0;
#X connect 647 0 648 0;
#X connect 648 0 649 1;
#X connect 649 0 677 0;
#X connect 650 0 653 0;
#X connect 651 0 654 0;
#X connect 652 0 687 0;
#X connect 653 0 655 0;
#X connect 654 0 655 0;
#X connect 655 0 656 0;
#X connect 656 0 657 1;
#X connect 657 0 678 0;
#X connect 658 0 661 0;
#X connect 659 0 662 0;
#X connect 660 0 688 0;
#X connect 661 0 663 0;
#X connect 662 0 663 0;
#X connect 663 0 664 0;
#X connect 664 0 665 1;
#X connect 665 0 679 0;
#X connect 666 0 668 0;
#X connect 667 0 689 0;
#X connect 668 0 669 0;
#X connect 669 0 670 0;
#X connect 670 0 671 1;
#X connect 671 0 680 0;
#X connect 681 0 602 0;
#X connect 681 1 603 0;
#X connect 682 0 610 0;
#X connect 682 1 611 0;
#X connect 683 0 618 0;
#X connect 683 1 619 0;
#X connect 684 0 626 0;
#X connect 684 1 627 0;
#X connect 685 0 634 0;
#X connect 685 1 635 0;
#X connect 686 0 642 0;
#X connect 686 1 643 0;
#X connect 687 0 650 0;
#X connect 687 1 651 0;
#X connect 688 0 658 0;
#X connect 688 1 659 0;
#X connect 689 0 666 0;
#X connect 690 0 9 0;
