#N canvas 130 22 1585 746 10;
#X obj 1277 654 dac~;
#X obj 720 388 s q;
#X obj 517 324 hsl 128 15 0 4095 0 0 empty empty Frequency -2 -8 0
10 -262144 -1 -1 5300 1;
#X obj 514 393 s freq;
#X obj 1277 382 catch~ dacL;
#X obj 1315 407 catch~ dacR;
#X obj 1124 354 s spread;
#X obj 1127 287 hsl 128 15 0 4095 0 0 empty empty Spread -2 -8 0 10
-262144 -1 -1 11000 0;
#X obj 1277 610 *~;
#X obj 1315 609 *~;
#X obj 1330 582 vline~;
#X msg 1330 560 \$1 20;
#X obj 1330 431 r q;
#X obj 723 317 hsl 128 15 0 4095 0 0 empty empty Q -2 -8 0 10 -262144
-1 -1 12700 1;
#X obj 1329 453 moses 4;
#X obj 1330 477 expr ($f1 * 0.25) + 0.25;
#X obj 136 594 metro 50;
#X obj 136 573 tgl 15 0 empty empty empty 17 7 0 10 -262144 -1 -1 1
1;
#X obj 136 617 s wigglemetro;
#X obj 136 548 loadbang;
#X obj 1381 365 s wiggle;
#X obj 1384 303 hsl 128 15 0 4095 0 0 empty empty Wiggle -2 -8 0 10
-262144 -1 -1 12700 0;
#X obj 28 249 noise~;
#X obj 29 574 tgl 15 0 empty empty empty 17 7 0 10 -262144 -1 -1 1
1;
#X obj 28 596 metro 3000;
#X obj 28 618 s wigglechange;
#X obj 28 549 loadbang;
#X obj 927 301 hsl 128 15 0 4095 0 0 empty empty Number_of_Bands -2
-8 0 10 -262144 -1 -1 12700 1;
#X obj 924 370 i;
#X obj 924 392 s nobands;
#X floatatom 955 371 5 0 0 0 - - -;
#X obj 223 496 s~ in1;
#X obj 402 489 s~ in2;
#X floatatom 1411 540 5 0 0 0 - - -;
#X obj 1369 499 expr ($f1 / 50) + 1;
#X obj 1315 630 *~ 2;
#X obj 1277 631 *~ 2;
#X obj 28 441 s~ input1;
#X obj 117 445 s~ input2;
#X obj 223 276 r~ input1;
#X obj 402 278 r~ input2;
#X obj 280 457 *~;
#X obj 345 455 *~;
#X obj 402 457 *~;
#X obj 223 457 *~;
#X obj 360 433 vline~;
#X obj 417 433 vline~;
#X obj 238 432 vline~;
#X obj 295 432 vline~;
#X msg 238 385 1 20;
#X msg 245 409 0 20;
#X msg 303 409 0 20;
#X msg 370 410 0 20;
#X msg 421 386 1 20;
#X msg 428 410 0 20;
#X msg 296 385 0.5 20;
#X msg 363 386 0.5 20;
#X obj 309 316 tgl 15 0 empty empty empty 17 7 0 10 -262144 -1 -1 1
1;
#X obj 309 338 sel 0 1;
#X obj 43 302 tgl 15 0 empty empty empty 17 7 0 10 -262144 -1 -1 0
1;
#X obj 28 419 *~;
#X obj 43 394 vline~;
#X msg 43 347 1 20;
#X msg 50 371 0 20;
#X obj 43 322 sel 1 0;
#X obj 117 251 noise~;
#X obj 132 304 tgl 15 0 empty empty empty 17 7 0 10 -262144 -1 -1 0
1;
#X obj 117 421 *~;
#X obj 132 396 vline~;
#X msg 132 349 1 20;
#X msg 139 373 0 20;
#X obj 132 324 sel 1 0;
#X obj 514 371 expr (($f1 / 4095) * 120) + 24;
#N canvas 214 22 1461 1351 odd 0;
#X obj 21 247 vcf~;
#X obj 21 272 *~ 0.1;
#X obj 42 224 r q;
#X obj 31 39 r freq;
#X obj 31 62 mtof;
#X obj 305 223 vcf~;
#X obj 326 200 r q;
#X obj 315 31 r freq;
#X obj 315 152 mtof;
#X obj 568 225 vcf~;
#X obj 589 202 r q;
#X obj 577 33 r freq;
#X obj 578 154 mtof;
#X obj 866 220 vcf~;
#X obj 866 245 *~ 0.1;
#X obj 887 195 r q;
#X obj 875 28 r freq;
#X obj 876 149 mtof;
#X obj 1146 219 vcf~;
#X obj 1146 244 *~ 0.1;
#X obj 1167 195 r q;
#X obj 1155 27 r freq;
#X obj 1156 148 mtof;
#X obj 20 881 vcf~;
#X obj 20 906 *~ 0.1;
#X obj 41 858 r q;
#X obj 29 689 r freq;
#X obj 30 810 mtof;
#X obj 318 885 vcf~;
#X obj 318 910 *~ 0.1;
#X obj 339 862 r q;
#X obj 327 693 r freq;
#X obj 328 814 mtof;
#X obj 614 883 vcf~;
#X obj 614 908 *~ 0.1;
#X obj 635 860 r q;
#X obj 623 691 r freq;
#X obj 624 812 mtof;
#X obj 342 57 r spread;
#X obj 342 80 * 1.5;
#X obj 315 128 + 1.5;
#X obj 315 81 t b;
#X floatatom 315 107 5 0 0 0 - - -;
#X obj 604 61 r spread;
#X obj 577 85 t b;
#X floatatom 577 111 5 0 0 0 - - -;
#X obj 604 84 * 2.5;
#X obj 577 132 + 2.5;
#X obj 904 54 r spread;
#X obj 877 78 t b;
#X floatatom 877 104 5 0 0 0 - - -;
#X obj 1183 55 r spread;
#X obj 1156 79 t b;
#X floatatom 1156 105 5 0 0 0 - - -;
#X obj 904 77 * 3.5;
#X obj 877 127 + 3.5;
#X obj 1183 78 * 4.5;
#X obj 1156 126 + 4.5;
#X obj 878 869 vcf~;
#X obj 878 894 *~ 0.1;
#X obj 899 846 r q;
#X obj 887 677 r freq;
#X obj 888 798 mtof;
#X obj 1176 887 vcf~;
#X obj 1176 912 *~ 0.1;
#X obj 1197 864 r q;
#X obj 1185 695 r freq;
#X obj 1186 816 mtof;
#X obj 56 714 r spread;
#X obj 29 738 t b;
#X floatatom 29 764 5 0 0 0 - - -;
#X obj 355 720 r spread;
#X obj 328 744 t b;
#X floatatom 328 770 5 0 0 0 - - -;
#X obj 651 712 r spread;
#X obj 624 736 t b;
#X floatatom 624 762 5 0 0 0 - - -;
#X obj 916 707 r spread;
#X obj 889 731 t b;
#X floatatom 889 757 5 0 0 0 - - -;
#X obj 1214 719 r spread;
#X obj 1187 743 t b;
#X floatatom 1187 769 5 0 0 0 - - -;
#X obj 56 737 * 5.5;
#X obj 355 743 * 6.5;
#X obj 651 735 * 7.5;
#X obj 916 730 * 8.5;
#X obj 1214 742 * 9.5;
#X obj 29 785 + 5.5;
#X obj 328 791 + 6.5;
#X obj 624 785 + 7.5;
#X obj 889 778 + 8.5;
#X obj 1187 790 + 9.5;
#X obj 31 84 clip 20 19000;
#X obj 315 176 clip 20 19000;
#X obj 578 178 clip 20 19000;
#X obj 876 173 clip 20 19000;
#X obj 1156 172 clip 20 19000;
#X obj 30 835 clip 20 19000;
#X obj 328 839 clip 20 19000;
#X obj 624 838 clip 20 19000;
#X obj 888 823 clip 20 19000;
#X obj 1186 840 clip 20 19000;
#X obj 36 341 snapshot~;
#X obj 52 318 r wigglemetro;
#X floatatom 36 386 5 0 0 0 - - -;
#X obj 36 364 expr 1 - ((($f1 + 1) / 2) * $f2);
#X obj 225 343 r wiggle;
#X obj 21 453 *~;
#X obj 36 430 vline~;
#X msg 36 408 \$1 20;
#X obj 21 477 throw~ dacL;
#X obj 320 317 snapshot~;
#X obj 336 294 r wigglemetro;
#X floatatom 320 362 5 0 0 0 - - -;
#X obj 320 340 expr 1 - ((($f1 + 1) / 2) * $f2);
#X obj 509 319 r wiggle;
#X obj 305 429 *~;
#X obj 320 406 vline~;
#X msg 320 384 \$1 20;
#X obj 305 606 throw~ dacL;
#X obj 583 319 snapshot~;
#X obj 599 296 r wigglemetro;
#X floatatom 583 364 5 0 0 0 - - -;
#X obj 583 342 expr 1 - ((($f1 + 1) / 2) * $f2);
#X obj 772 321 r wiggle;
#X obj 568 431 *~;
#X obj 583 408 vline~;
#X msg 583 386 \$1 20;
#X obj 881 320 snapshot~;
#X obj 897 297 r wigglemetro;
#X floatatom 881 365 5 0 0 0 - - -;
#X obj 881 343 expr 1 - ((($f1 + 1) / 2) * $f2);
#X obj 1070 322 r wiggle;
#X obj 866 432 *~;
#X obj 881 409 vline~;
#X msg 881 387 \$1 20;
#X obj 1160 327 snapshot~;
#X obj 1176 304 r wigglemetro;
#X floatatom 1160 372 5 0 0 0 - - -;
#X obj 1160 350 expr 1 - ((($f1 + 1) / 2) * $f2);
#X obj 1349 329 r wiggle;
#X obj 1145 439 *~;
#X obj 1160 416 vline~;
#X msg 1160 394 \$1 20;
#X obj 35 987 snapshot~;
#X obj 51 964 r wigglemetro;
#X floatatom 35 1032 5 0 0 0 - - -;
#X obj 35 1010 expr 1 - ((($f1 + 1) / 2) * $f2);
#X obj 224 989 r wiggle;
#X obj 20 1099 *~;
#X obj 35 1076 vline~;
#X msg 35 1054 \$1 20;
#X obj 333 988 snapshot~;
#X obj 349 965 r wigglemetro;
#X floatatom 333 1033 5 0 0 0 - - -;
#X obj 333 1011 expr 1 - ((($f1 + 1) / 2) * $f2);
#X obj 522 990 r wiggle;
#X obj 318 1100 *~;
#X obj 333 1077 vline~;
#X msg 333 1055 \$1 20;
#X obj 633 989 snapshot~;
#X obj 649 966 r wigglemetro;
#X floatatom 633 1034 5 0 0 0 - - -;
#X obj 633 1012 expr 1 - ((($f1 + 1) / 2) * $f2);
#X obj 822 991 r wiggle;
#X obj 618 1101 *~;
#X obj 633 1078 vline~;
#X msg 633 1056 \$1 20;
#X obj 896 991 snapshot~;
#X obj 912 968 r wigglemetro;
#X floatatom 896 1036 5 0 0 0 - - -;
#X obj 896 1014 expr 1 - ((($f1 + 1) / 2) * $f2);
#X obj 1085 993 r wiggle;
#X obj 881 1103 *~;
#X obj 896 1080 vline~;
#X msg 896 1058 \$1 20;
#X obj 1194 992 snapshot~;
#X obj 1210 969 r wigglemetro;
#X floatatom 1194 1037 5 0 0 0 - - -;
#X obj 1194 1015 expr 1 - ((($f1 + 1) / 2) * $f2);
#X obj 1383 994 r wiggle;
#X obj 1179 1104 *~;
#X obj 1194 1081 vline~;
#X msg 1194 1059 \$1 20;
#X obj 568 250 *~ 0.1;
#X obj 305 248 *~ 0.1;
#X obj 36 296 osc~ 0.1;
#X obj 148 338 / 100;
#X obj 148 317 random 50;
#X obj 148 296 r wigglechange;
#X obj 428 316 / 100;
#X obj 428 295 random 50;
#X obj 428 274 r wigglechange;
#X obj 697 317 / 100;
#X obj 697 296 random 50;
#X obj 697 275 r wigglechange;
#X obj 992 319 / 100;
#X obj 992 298 random 50;
#X obj 992 277 r wigglechange;
#X obj 1267 323 / 100;
#X obj 1267 302 random 50;
#X obj 1267 281 r wigglechange;
#X obj 151 983 / 100;
#X obj 151 962 random 50;
#X obj 151 941 r wigglechange;
#X obj 440 984 / 100;
#X obj 440 963 random 50;
#X obj 440 942 r wigglechange;
#X obj 743 985 / 100;
#X obj 743 964 random 50;
#X obj 743 943 r wigglechange;
#X obj 1013 986 / 100;
#X obj 1013 965 random 50;
#X obj 1013 944 r wigglechange;
#X obj 1305 990 / 100;
#X obj 1305 969 random 50;
#X obj 1305 948 r wigglechange;
#X obj 1194 948 osc~ 0.1;
#X obj 896 947 osc~ 0.1;
#X obj 633 944 osc~ 0.1;
#X obj 333 944 osc~ 0.1;
#X obj 35 943 osc~ 0.1;
#X obj 1159 282 osc~ 0.1;
#X obj 881 276 osc~ 0.1;
#X obj 583 275 osc~ 0.1;
#X obj 320 272 osc~ 0.1;
#X obj 320 494 t b;
#X obj 359 520 t b;
#X obj 320 451 r nobands;
#X msg 320 515 0;
#X msg 359 540 1;
#X msg 320 538 \$1 20;
#X obj 320 560 vline~;
#X obj 305 584 *~;
#X obj 320 473 moses 3;
#X obj 569 610 throw~ dacL;
#X obj 584 498 t b;
#X obj 623 524 t b;
#X obj 584 455 r nobands;
#X msg 584 519 0;
#X msg 623 544 1;
#X msg 584 542 \$1 20;
#X obj 584 564 vline~;
#X obj 569 588 *~;
#X obj 872 612 throw~ dacL;
#X obj 887 500 t b;
#X obj 926 526 t b;
#X obj 887 457 r nobands;
#X msg 887 521 0;
#X msg 926 546 1;
#X msg 887 544 \$1 20;
#X obj 887 566 vline~;
#X obj 872 590 *~;
#X obj 1145 618 throw~ dacL;
#X obj 1160 506 t b;
#X obj 1199 532 t b;
#X obj 1160 463 r nobands;
#X msg 1160 527 0;
#X msg 1199 552 1;
#X msg 1160 550 \$1 20;
#X obj 1160 572 vline~;
#X obj 1145 596 *~;
#X obj 19 1276 throw~ dacL;
#X obj 34 1164 t b;
#X obj 73 1190 t b;
#X obj 34 1121 r nobands;
#X msg 34 1185 0;
#X msg 73 1210 1;
#X msg 34 1208 \$1 20;
#X obj 34 1230 vline~;
#X obj 19 1254 *~;
#X obj 318 1280 throw~ dacL;
#X obj 333 1168 t b;
#X obj 372 1194 t b;
#X obj 333 1125 r nobands;
#X msg 333 1189 0;
#X msg 372 1214 1;
#X msg 333 1212 \$1 20;
#X obj 333 1234 vline~;
#X obj 318 1258 *~;
#X obj 618 1281 throw~ dacL;
#X obj 633 1169 t b;
#X obj 672 1195 t b;
#X obj 633 1126 r nobands;
#X msg 633 1190 0;
#X msg 672 1215 1;
#X msg 633 1213 \$1 20;
#X obj 633 1235 vline~;
#X obj 618 1259 *~;
#X obj 881 1285 throw~ dacL;
#X obj 896 1173 t b;
#X obj 935 1199 t b;
#X obj 896 1130 r nobands;
#X msg 896 1194 0;
#X msg 935 1219 1;
#X msg 896 1217 \$1 20;
#X obj 896 1239 vline~;
#X obj 881 1263 *~;
#X obj 1179 1284 throw~ dacL;
#X obj 1194 1172 t b;
#X obj 1233 1198 t b;
#X obj 1194 1129 r nobands;
#X msg 1194 1193 0;
#X msg 1233 1218 1;
#X msg 1194 1216 \$1 20;
#X obj 1194 1238 vline~;
#X obj 1179 1262 *~;
#X obj 584 477 moses 5;
#X obj 886 479 moses 7;
#X obj 1160 485 moses 9;
#X obj 34 1143 moses 11;
#X obj 333 1147 moses 13;
#X obj 633 1148 moses 15;
#X obj 896 1152 moses 17;
#X obj 1194 1151 moses 19;
#X obj 21 14 r~ in1;
#X obj 304 6 r~ in1;
#X obj 567 8 r~ in1;
#X obj 865 3 r~ in1;
#X obj 1145 2 r~ in1;
#X obj 19 664 r~ in1;
#X obj 317 668 r~ in1;
#X obj 613 666 r~ in1;
#X obj 877 652 r~ in1;
#X obj 1175 670 r~ in1;
#X connect 0 0 1 0;
#X connect 1 0 108 0;
#X connect 2 0 0 2;
#X connect 3 0 4 0;
#X connect 4 0 93 0;
#X connect 5 0 186 0;
#X connect 6 0 5 2;
#X connect 7 0 42 0;
#X connect 8 0 94 0;
#X connect 9 0 185 0;
#X connect 10 0 9 2;
#X connect 12 0 95 0;
#X connect 13 0 14 0;
#X connect 14 0 134 0;
#X connect 15 0 13 2;
#X connect 16 0 50 0;
#X connect 17 0 96 0;
#X connect 18 0 19 0;
#X connect 19 0 142 0;
#X connect 20 0 18 2;
#X connect 21 0 53 0;
#X connect 22 0 97 0;
#X connect 23 0 24 0;
#X connect 24 0 150 0;
#X connect 25 0 23 2;
#X connect 26 0 70 0;
#X connect 27 0 98 0;
#X connect 28 0 29 0;
#X connect 29 0 158 0;
#X connect 30 0 28 2;
#X connect 31 0 73 0;
#X connect 32 0 99 0;
#X connect 33 0 34 0;
#X connect 34 0 166 0;
#X connect 35 0 33 2;
#X connect 36 0 76 0;
#X connect 37 0 100 0;
#X connect 38 0 39 0;
#X connect 38 0 41 0;
#X connect 39 0 40 1;
#X connect 40 0 8 0;
#X connect 41 0 42 0;
#X connect 42 0 40 0;
#X connect 43 0 44 0;
#X connect 43 0 46 0;
#X connect 44 0 45 0;
#X connect 45 0 47 0;
#X connect 46 0 47 1;
#X connect 47 0 12 0;
#X connect 48 0 49 0;
#X connect 48 0 54 0;
#X connect 49 0 50 0;
#X connect 50 0 55 0;
#X connect 51 0 52 0;
#X connect 51 0 56 0;
#X connect 52 0 53 0;
#X connect 53 0 57 0;
#X connect 54 0 55 1;
#X connect 55 0 17 0;
#X connect 56 0 57 1;
#X connect 57 0 22 0;
#X connect 58 0 59 0;
#X connect 59 0 174 0;
#X connect 60 0 58 2;
#X connect 61 0 79 0;
#X connect 62 0 101 0;
#X connect 63 0 64 0;
#X connect 64 0 182 0;
#X connect 65 0 63 2;
#X connect 66 0 82 0;
#X connect 67 0 102 0;
#X connect 68 0 69 0;
#X connect 68 0 83 0;
#X connect 69 0 70 0;
#X connect 70 0 88 0;
#X connect 71 0 72 0;
#X connect 71 0 84 0;
#X connect 72 0 73 0;
#X connect 73 0 89 0;
#X connect 74 0 75 0;
#X connect 74 0 85 0;
#X connect 75 0 76 0;
#X connect 76 0 90 0;
#X connect 77 0 78 0;
#X connect 77 0 86 0;
#X connect 78 0 79 0;
#X connect 79 0 91 0;
#X connect 80 0 81 0;
#X connect 80 0 87 0;
#X connect 81 0 82 0;
#X connect 82 0 92 0;
#X connect 83 0 88 1;
#X connect 84 0 89 1;
#X connect 85 0 90 1;
#X connect 86 0 91 1;
#X connect 87 0 92 1;
#X connect 88 0 27 0;
#X connect 89 0 32 0;
#X connect 90 0 37 0;
#X connect 91 0 62 0;
#X connect 92 0 67 0;
#X connect 93 0 0 1;
#X connect 94 0 5 1;
#X connect 95 0 9 1;
#X connect 96 0 13 1;
#X connect 97 0 18 1;
#X connect 98 0 23 1;
#X connect 99 0 28 1;
#X connect 100 0 33 1;
#X connect 101 0 58 1;
#X connect 102 0 63 1;
#X connect 103 0 106 0;
#X connect 104 0 103 0;
#X connect 105 0 110 0;
#X connect 106 0 105 0;
#X connect 107 0 106 1;
#X connect 108 0 111 0;
#X connect 109 0 108 1;
#X connect 110 0 109 0;
#X connect 112 0 115 0;
#X connect 113 0 112 0;
#X connect 114 0 119 0;
#X connect 115 0 114 0;
#X connect 116 0 115 1;
#X connect 117 0 234 0;
#X connect 118 0 117 1;
#X connect 119 0 118 0;
#X connect 121 0 124 0;
#X connect 122 0 121 0;
#X connect 123 0 128 0;
#X connect 124 0 123 0;
#X connect 125 0 124 1;
#X connect 126 0 244 0;
#X connect 127 0 126 1;
#X connect 128 0 127 0;
#X connect 129 0 132 0;
#X connect 130 0 129 0;
#X connect 131 0 136 0;
#X connect 132 0 131 0;
#X connect 133 0 132 1;
#X connect 134 0 253 0;
#X connect 135 0 134 1;
#X connect 136 0 135 0;
#X connect 137 0 140 0;
#X connect 138 0 137 0;
#X connect 139 0 144 0;
#X connect 140 0 139 0;
#X connect 141 0 140 1;
#X connect 142 0 262 0;
#X connect 143 0 142 1;
#X connect 144 0 143 0;
#X connect 145 0 148 0;
#X connect 146 0 145 0;
#X connect 147 0 152 0;
#X connect 148 0 147 0;
#X connect 149 0 148 1;
#X connect 150 0 271 0;
#X connect 151 0 150 1;
#X connect 152 0 151 0;
#X connect 153 0 156 0;
#X connect 154 0 153 0;
#X connect 155 0 160 0;
#X connect 156 0 155 0;
#X connect 157 0 156 1;
#X connect 158 0 280 0;
#X connect 159 0 158 1;
#X connect 160 0 159 0;
#X connect 161 0 164 0;
#X connect 162 0 161 0;
#X connect 163 0 168 0;
#X connect 164 0 163 0;
#X connect 165 0 164 1;
#X connect 166 0 289 0;
#X connect 167 0 166 1;
#X connect 168 0 167 0;
#X connect 169 0 172 0;
#X connect 170 0 169 0;
#X connect 171 0 176 0;
#X connect 172 0 171 0;
#X connect 173 0 172 1;
#X connect 174 0 298 0;
#X connect 175 0 174 1;
#X connect 176 0 175 0;
#X connect 177 0 180 0;
#X connect 178 0 177 0;
#X connect 179 0 184 0;
#X connect 180 0 179 0;
#X connect 181 0 180 1;
#X connect 182 0 307 0;
#X connect 183 0 182 1;
#X connect 184 0 183 0;
#X connect 185 0 126 0;
#X connect 186 0 117 0;
#X connect 187 0 103 0;
#X connect 188 0 187 0;
#X connect 189 0 188 0;
#X connect 190 0 189 0;
#X connect 191 0 226 0;
#X connect 192 0 191 0;
#X connect 193 0 192 0;
#X connect 194 0 225 0;
#X connect 195 0 194 0;
#X connect 196 0 195 0;
#X connect 197 0 224 0;
#X connect 198 0 197 0;
#X connect 199 0 198 0;
#X connect 200 0 223 0;
#X connect 201 0 200 0;
#X connect 202 0 201 0;
#X connect 203 0 222 0;
#X connect 204 0 203 0;
#X connect 205 0 204 0;
#X connect 206 0 221 0;
#X connect 207 0 206 0;
#X connect 208 0 207 0;
#X connect 209 0 220 0;
#X connect 210 0 209 0;
#X connect 211 0 210 0;
#X connect 212 0 219 0;
#X connect 213 0 212 0;
#X connect 214 0 213 0;
#X connect 215 0 218 0;
#X connect 216 0 215 0;
#X connect 217 0 216 0;
#X connect 218 0 177 0;
#X connect 219 0 169 0;
#X connect 220 0 161 0;
#X connect 221 0 153 0;
#X connect 222 0 145 0;
#X connect 223 0 137 0;
#X connect 224 0 129 0;
#X connect 225 0 121 0;
#X connect 226 0 112 0;
#X connect 227 0 230 0;
#X connect 228 0 231 0;
#X connect 229 0 235 0;
#X connect 230 0 232 0;
#X connect 231 0 232 0;
#X connect 232 0 233 0;
#X connect 233 0 234 1;
#X connect 234 0 120 0;
#X connect 235 0 227 0;
#X connect 235 1 228 0;
#X connect 237 0 240 0;
#X connect 238 0 241 0;
#X connect 239 0 308 0;
#X connect 240 0 242 0;
#X connect 241 0 242 0;
#X connect 242 0 243 0;
#X connect 243 0 244 1;
#X connect 244 0 236 0;
#X connect 246 0 249 0;
#X connect 247 0 250 0;
#X connect 248 0 309 0;
#X connect 249 0 251 0;
#X connect 250 0 251 0;
#X connect 251 0 252 0;
#X connect 252 0 253 1;
#X connect 253 0 245 0;
#X connect 255 0 258 0;
#X connect 256 0 259 0;
#X connect 257 0 310 0;
#X connect 258 0 260 0;
#X connect 259 0 260 0;
#X connect 260 0 261 0;
#X connect 261 0 262 1;
#X connect 262 0 254 0;
#X connect 264 0 267 0;
#X connect 265 0 268 0;
#X connect 266 0 311 0;
#X connect 267 0 269 0;
#X connect 268 0 269 0;
#X connect 269 0 270 0;
#X connect 270 0 271 1;
#X connect 271 0 263 0;
#X connect 273 0 276 0;
#X connect 274 0 277 0;
#X connect 275 0 312 0;
#X connect 276 0 278 0;
#X connect 277 0 278 0;
#X connect 278 0 279 0;
#X connect 279 0 280 1;
#X connect 280 0 272 0;
#X connect 282 0 285 0;
#X connect 283 0 286 0;
#X connect 284 0 313 0;
#X connect 285 0 287 0;
#X connect 286 0 287 0;
#X connect 287 0 288 0;
#X connect 288 0 289 1;
#X connect 289 0 281 0;
#X connect 291 0 294 0;
#X connect 292 0 295 0;
#X connect 293 0 314 0;
#X connect 294 0 296 0;
#X connect 295 0 296 0;
#X connect 296 0 297 0;
#X connect 297 0 298 1;
#X connect 298 0 290 0;
#X connect 300 0 303 0;
#X connect 301 0 304 0;
#X connect 302 0 315 0;
#X connect 303 0 305 0;
#X connect 304 0 305 0;
#X connect 305 0 306 0;
#X connect 306 0 307 1;
#X connect 307 0 299 0;
#X connect 308 0 237 0;
#X connect 308 1 238 0;
#X connect 309 0 246 0;
#X connect 309 1 247 0;
#X connect 310 0 255 0;
#X connect 310 1 256 0;
#X connect 311 0 264 0;
#X connect 311 1 265 0;
#X connect 312 0 273 0;
#X connect 312 1 274 0;
#X connect 313 0 282 0;
#X connect 313 1 283 0;
#X connect 314 0 291 0;
#X connect 314 1 292 0;
#X connect 315 0 300 0;
#X connect 315 1 301 0;
#X connect 316 0 0 0;
#X connect 317 0 5 0;
#X connect 318 0 9 0;
#X connect 319 0 13 0;
#X connect 320 0 18 0;
#X connect 321 0 23 0;
#X connect 322 0 28 0;
#X connect 323 0 33 0;
#X connect 324 0 58 0;
#X connect 325 0 63 0;
#X restore 265 547 pd odd;
#N canvas 136 22 1494 1363 even 0;
#X obj 9 221 vcf~;
#X obj 9 246 *~ 0.1;
#X obj 30 198 r q;
#X obj 19 29 r freq;
#X obj 19 152 mtof;
#X obj 287 231 vcf~;
#X obj 287 256 *~ 0.1;
#X obj 308 208 r q;
#X obj 297 39 r freq;
#X obj 297 162 mtof;
#X obj 552 232 vcf~;
#X obj 552 257 *~ 0.1;
#X obj 573 209 r q;
#X obj 562 40 r freq;
#X obj 562 163 mtof;
#X obj 850 235 vcf~;
#X obj 850 260 *~ 0.1;
#X obj 871 212 r q;
#X obj 860 43 r freq;
#X obj 860 166 mtof;
#X obj 1130 230 vcf~;
#X obj 1130 255 *~ 0.1;
#X obj 1151 207 r q;
#X obj 1140 38 r freq;
#X obj 1140 161 mtof;
#X obj 324 69 r spread;
#X obj 297 93 t b;
#X floatatom 297 119 5 0 0 0 - - -;
#X obj 324 92 * 2;
#X obj 297 140 + 2;
#X obj 590 69 r spread;
#X obj 563 93 t b;
#X floatatom 563 119 5 0 0 0 - - -;
#X obj 590 92 * 3;
#X obj 563 140 + 3;
#X obj 888 73 r spread;
#X obj 861 97 t b;
#X floatatom 861 123 5 0 0 0 - - -;
#X obj 1169 67 r spread;
#X obj 1142 91 t b;
#X floatatom 1142 117 5 0 0 0 - - -;
#X obj 888 96 * 4;
#X obj 861 144 + 4;
#X obj 1169 90 * 5;
#X obj 1142 138 + 5;
#X obj 47 57 r spread;
#X obj 20 81 t b;
#X floatatom 20 107 5 0 0 0 - - -;
#X obj 20 128 + 1;
#X obj 19 173 clip 20 19000;
#X obj 297 184 clip 20 19000;
#X obj 562 186 clip 20 19000;
#X obj 861 189 clip 20 19000;
#X obj 1140 183 clip 20 19000;
#X obj 24 319 snapshot~;
#X obj 40 296 r wigglemetro;
#X floatatom 24 364 5 0 0 0 - - -;
#X obj 24 342 expr 1 - ((($f1 + 1) / 2) * $f2);
#X obj 213 321 r wiggle;
#X obj 9 431 *~;
#X obj 24 408 vline~;
#X msg 24 386 \$1 20;
#X obj 24 274 osc~ 0.1;
#X obj 136 316 / 100;
#X obj 136 295 random 50;
#X obj 136 274 r wigglechange;
#X obj 299 328 snapshot~;
#X obj 315 305 r wigglemetro;
#X floatatom 299 373 5 0 0 0 - - -;
#X obj 299 351 expr 1 - ((($f1 + 1) / 2) * $f2);
#X obj 488 330 r wiggle;
#X obj 284 440 *~;
#X obj 299 417 vline~;
#X msg 299 395 \$1 20;
#X obj 562 330 snapshot~;
#X obj 578 307 r wigglemetro;
#X floatatom 562 375 5 0 0 0 - - -;
#X obj 562 353 expr 1 - ((($f1 + 1) / 2) * $f2);
#X obj 751 332 r wiggle;
#X obj 547 442 *~;
#X obj 562 419 vline~;
#X msg 562 397 \$1 20;
#X obj 860 331 snapshot~;
#X obj 876 308 r wigglemetro;
#X floatatom 860 376 5 0 0 0 - - -;
#X obj 860 354 expr 1 - ((($f1 + 1) / 2) * $f2);
#X obj 1049 333 r wiggle;
#X obj 845 443 *~;
#X obj 860 420 vline~;
#X msg 860 398 \$1 20;
#X obj 1139 338 snapshot~;
#X obj 1155 315 r wigglemetro;
#X floatatom 1139 383 5 0 0 0 - - -;
#X obj 1139 361 expr 1 - ((($f1 + 1) / 2) * $f2);
#X obj 1328 340 r wiggle;
#X obj 1124 450 *~;
#X obj 1139 427 vline~;
#X msg 1139 405 \$1 20;
#X obj 407 327 / 100;
#X obj 407 306 random 50;
#X obj 407 285 r wigglechange;
#X obj 676 328 / 100;
#X obj 676 307 random 50;
#X obj 676 286 r wigglechange;
#X obj 971 330 / 100;
#X obj 971 309 random 50;
#X obj 971 288 r wigglechange;
#X obj 1246 334 / 100;
#X obj 1246 313 random 50;
#X obj 1246 292 r wigglechange;
#X obj 1138 293 osc~ 0.1;
#X obj 860 287 osc~ 0.1;
#X obj 562 286 osc~ 0.1;
#X obj 299 283 osc~ 0.1;
#X obj 9 459 throw~ dacR;
#X obj 297 512 t b;
#X obj 336 538 t b;
#X obj 297 469 r nobands;
#X msg 297 533 0;
#X msg 336 558 1;
#X msg 297 556 \$1 20;
#X obj 297 578 vline~;
#X obj 282 602 *~;
#X obj 561 516 t b;
#X obj 600 542 t b;
#X obj 561 473 r nobands;
#X msg 561 537 0;
#X msg 600 562 1;
#X msg 561 560 \$1 20;
#X obj 561 582 vline~;
#X obj 546 606 *~;
#X obj 864 518 t b;
#X obj 903 544 t b;
#X obj 864 475 r nobands;
#X msg 864 539 0;
#X msg 903 564 1;
#X msg 864 562 \$1 20;
#X obj 864 584 vline~;
#X obj 849 608 *~;
#X obj 1137 524 t b;
#X obj 1176 550 t b;
#X obj 1137 481 r nobands;
#X msg 1137 545 0;
#X msg 1176 570 1;
#X msg 1137 568 \$1 20;
#X obj 1137 590 vline~;
#X obj 297 491 moses 4;
#X obj 561 495 moses 6;
#X obj 863 497 moses 8;
#X obj 1137 503 moses 10;
#X obj 9 4 r~ in2;
#X obj 287 14 r~ in2;
#X obj 552 15 r~ in2;
#X obj 850 18 r~ in2;
#X obj 1130 13 r~ in2;
#X obj 1121 617 *~;
#X obj 281 627 throw~ dacR;
#X obj 545 631 throw~ dacR;
#X obj 848 633 throw~ dacR;
#X obj 1121 639 throw~ dacR;
#X obj 19 923 vcf~;
#X obj 19 948 *~ 0.1;
#X obj 40 900 r q;
#X obj 29 731 r freq;
#X obj 29 854 mtof;
#X obj 326 918 vcf~;
#X obj 326 943 *~ 0.1;
#X obj 347 895 r q;
#X obj 336 726 r freq;
#X obj 622 919 vcf~;
#X obj 622 944 *~ 0.1;
#X obj 643 896 r q;
#X obj 632 727 r freq;
#X obj 632 850 mtof;
#X obj 885 918 vcf~;
#X obj 885 943 *~ 0.1;
#X obj 906 895 r q;
#X obj 895 726 r freq;
#X obj 895 849 mtof;
#X obj 1184 921 vcf~;
#X obj 1184 946 *~ 0.1;
#X obj 1205 898 r q;
#X obj 1194 729 r freq;
#X obj 1194 852 mtof;
#X obj 55 760 r spread;
#X obj 28 784 t b;
#X floatatom 28 810 5 0 0 0 - - -;
#X obj 363 754 r spread;
#X obj 336 778 t b;
#X floatatom 336 804 5 0 0 0 - - -;
#X obj 659 751 r spread;
#X obj 632 775 t b;
#X floatatom 632 801 5 0 0 0 - - -;
#X obj 922 750 r spread;
#X obj 895 774 t b;
#X floatatom 895 800 5 0 0 0 - - -;
#X obj 336 848 mtof;
#X obj 1226 750 r spread;
#X obj 1194 771 t b;
#X floatatom 1194 797 5 0 0 0 - - -;
#X obj 55 783 * 6;
#X obj 363 777 * 7;
#X obj 659 774 * 8;
#X obj 922 773 * 9;
#X obj 1226 773 * 10;
#X obj 28 831 + 6;
#X obj 336 825 + 7;
#X obj 632 822 + 8;
#X obj 895 821 + 9;
#X obj 1194 818 + 10;
#X obj 29 877 clip 20 19000;
#X obj 336 873 clip 20 19000;
#X obj 633 875 clip 20 19000;
#X obj 897 875 clip 20 19000;
#X obj 1195 875 clip 20 19000;
#X obj 37 1021 snapshot~;
#X obj 53 998 r wigglemetro;
#X floatatom 37 1066 5 0 0 0 - - -;
#X obj 37 1044 expr 1 - ((($f1 + 1) / 2) * $f2);
#X obj 226 1023 r wiggle;
#X obj 22 1133 *~;
#X obj 37 1110 vline~;
#X msg 37 1088 \$1 20;
#X obj 335 1022 snapshot~;
#X obj 351 999 r wigglemetro;
#X floatatom 335 1067 5 0 0 0 - - -;
#X obj 335 1045 expr 1 - ((($f1 + 1) / 2) * $f2);
#X obj 524 1024 r wiggle;
#X obj 320 1134 *~;
#X obj 335 1111 vline~;
#X msg 335 1089 \$1 20;
#X obj 635 1023 snapshot~;
#X obj 651 1000 r wigglemetro;
#X floatatom 635 1068 5 0 0 0 - - -;
#X obj 635 1046 expr 1 - ((($f1 + 1) / 2) * $f2);
#X obj 824 1025 r wiggle;
#X obj 620 1135 *~;
#X obj 635 1112 vline~;
#X msg 635 1090 \$1 20;
#X obj 898 1025 snapshot~;
#X obj 914 1002 r wigglemetro;
#X floatatom 898 1070 5 0 0 0 - - -;
#X obj 898 1048 expr 1 - ((($f1 + 1) / 2) * $f2);
#X obj 1087 1027 r wiggle;
#X obj 883 1137 *~;
#X obj 898 1114 vline~;
#X msg 898 1092 \$1 20;
#X obj 1196 1026 snapshot~;
#X obj 1212 1003 r wigglemetro;
#X floatatom 1196 1071 5 0 0 0 - - -;
#X obj 1196 1049 expr 1 - ((($f1 + 1) / 2) * $f2);
#X obj 1385 1028 r wiggle;
#X obj 1181 1138 *~;
#X obj 1196 1115 vline~;
#X msg 1196 1093 \$1 20;
#X obj 153 1017 / 100;
#X obj 153 996 random 50;
#X obj 153 975 r wigglechange;
#X obj 442 1018 / 100;
#X obj 442 997 random 50;
#X obj 442 976 r wigglechange;
#X obj 745 1019 / 100;
#X obj 745 998 random 50;
#X obj 745 977 r wigglechange;
#X obj 1015 1020 / 100;
#X obj 1015 999 random 50;
#X obj 1015 978 r wigglechange;
#X obj 1307 1024 / 100;
#X obj 1307 1003 random 50;
#X obj 1307 982 r wigglechange;
#X obj 1196 982 osc~ 0.1;
#X obj 898 981 osc~ 0.1;
#X obj 635 978 osc~ 0.1;
#X obj 335 978 osc~ 0.1;
#X obj 37 977 osc~ 0.1;
#X obj 34 1205 t b;
#X obj 73 1231 t b;
#X obj 34 1162 r nobands;
#X msg 34 1226 0;
#X msg 73 1251 1;
#X msg 34 1249 \$1 20;
#X obj 34 1271 vline~;
#X obj 19 1295 *~;
#X obj 333 1209 t b;
#X obj 372 1235 t b;
#X obj 333 1166 r nobands;
#X msg 333 1230 0;
#X msg 372 1255 1;
#X msg 333 1253 \$1 20;
#X obj 333 1275 vline~;
#X obj 318 1299 *~;
#X obj 633 1210 t b;
#X obj 672 1236 t b;
#X obj 633 1167 r nobands;
#X msg 633 1231 0;
#X msg 672 1256 1;
#X msg 633 1254 \$1 20;
#X obj 633 1276 vline~;
#X obj 618 1300 *~;
#X obj 896 1214 t b;
#X obj 935 1240 t b;
#X obj 896 1171 r nobands;
#X msg 896 1235 0;
#X msg 935 1260 1;
#X msg 896 1258 \$1 20;
#X obj 896 1280 vline~;
#X obj 881 1304 *~;
#X obj 1194 1213 t b;
#X obj 1194 1170 r nobands;
#X msg 1194 1234 0;
#X msg 1194 1257 \$1 20;
#X obj 1194 1279 vline~;
#X obj 1179 1303 *~;
#X obj 19 1317 throw~ dacR;
#X obj 318 1321 throw~ dacR;
#X obj 618 1322 throw~ dacR;
#X obj 881 1326 throw~ dacR;
#X obj 1179 1325 throw~ dacR;
#X obj 34 1184 moses 12;
#X obj 333 1188 moses 14;
#X obj 633 1189 moses 16;
#X obj 896 1193 moses 18;
#X obj 1194 1192 moses 20;
#X obj 19 706 r~ in2;
#X obj 326 701 r~ in2;
#X obj 622 702 r~ in2;
#X obj 885 701 r~ in2;
#X obj 1184 704 r~ in2;
#X connect 0 0 1 0;
#X connect 1 0 59 0;
#X connect 2 0 0 2;
#X connect 3 0 47 0;
#X connect 4 0 49 0;
#X connect 5 0 6 0;
#X connect 6 0 71 0;
#X connect 7 0 5 2;
#X connect 8 0 27 0;
#X connect 9 0 50 0;
#X connect 10 0 11 0;
#X connect 11 0 79 0;
#X connect 12 0 10 2;
#X connect 13 0 32 0;
#X connect 14 0 51 0;
#X connect 15 0 16 0;
#X connect 16 0 87 0;
#X connect 17 0 15 2;
#X connect 18 0 37 0;
#X connect 19 0 52 0;
#X connect 20 0 21 0;
#X connect 21 0 95 0;
#X connect 22 0 20 2;
#X connect 23 0 40 0;
#X connect 24 0 53 0;
#X connect 25 0 26 0;
#X connect 25 0 28 0;
#X connect 26 0 27 0;
#X connect 27 0 29 0;
#X connect 28 0 29 1;
#X connect 29 0 9 0;
#X connect 30 0 31 0;
#X connect 30 0 33 0;
#X connect 31 0 32 0;
#X connect 32 0 34 0;
#X connect 33 0 34 1;
#X connect 34 0 14 0;
#X connect 35 0 36 0;
#X connect 35 0 41 0;
#X connect 36 0 37 0;
#X connect 37 0 42 0;
#X connect 38 0 39 0;
#X connect 38 0 43 0;
#X connect 39 0 40 0;
#X connect 40 0 44 0;
#X connect 41 0 42 1;
#X connect 42 0 19 0;
#X connect 43 0 44 1;
#X connect 44 0 24 0;
#X connect 45 0 46 0;
#X connect 45 0 48 1;
#X connect 46 0 47 0;
#X connect 47 0 48 0;
#X connect 48 0 4 0;
#X connect 49 0 0 1;
#X connect 50 0 5 1;
#X connect 51 0 10 1;
#X connect 52 0 15 1;
#X connect 53 0 20 1;
#X connect 54 0 57 0;
#X connect 55 0 54 0;
#X connect 56 0 61 0;
#X connect 57 0 56 0;
#X connect 58 0 57 1;
#X connect 59 0 114 0;
#X connect 60 0 59 1;
#X connect 61 0 60 0;
#X connect 62 0 54 0;
#X connect 63 0 62 0;
#X connect 64 0 63 0;
#X connect 65 0 64 0;
#X connect 66 0 69 0;
#X connect 67 0 66 0;
#X connect 68 0 73 0;
#X connect 69 0 68 0;
#X connect 70 0 69 1;
#X connect 71 0 122 0;
#X connect 72 0 71 1;
#X connect 73 0 72 0;
#X connect 74 0 77 0;
#X connect 75 0 74 0;
#X connect 76 0 81 0;
#X connect 77 0 76 0;
#X connect 78 0 77 1;
#X connect 79 0 130 0;
#X connect 80 0 79 1;
#X connect 81 0 80 0;
#X connect 82 0 85 0;
#X connect 83 0 82 0;
#X connect 84 0 89 0;
#X connect 85 0 84 0;
#X connect 86 0 85 1;
#X connect 87 0 138 0;
#X connect 88 0 87 1;
#X connect 89 0 88 0;
#X connect 90 0 93 0;
#X connect 91 0 90 0;
#X connect 92 0 97 0;
#X connect 93 0 92 0;
#X connect 94 0 93 1;
#X connect 95 0 155 0;
#X connect 96 0 95 1;
#X connect 97 0 96 0;
#X connect 98 0 113 0;
#X connect 99 0 98 0;
#X connect 100 0 99 0;
#X connect 101 0 112 0;
#X connect 102 0 101 0;
#X connect 103 0 102 0;
#X connect 104 0 111 0;
#X connect 105 0 104 0;
#X connect 106 0 105 0;
#X connect 107 0 110 0;
#X connect 108 0 107 0;
#X connect 109 0 108 0;
#X connect 110 0 90 0;
#X connect 111 0 82 0;
#X connect 112 0 74 0;
#X connect 113 0 66 0;
#X connect 115 0 118 0;
#X connect 116 0 119 0;
#X connect 117 0 146 0;
#X connect 118 0 120 0;
#X connect 119 0 120 0;
#X connect 120 0 121 0;
#X connect 121 0 122 1;
#X connect 122 0 156 0;
#X connect 123 0 126 0;
#X connect 124 0 127 0;
#X connect 125 0 147 0;
#X connect 126 0 128 0;
#X connect 127 0 128 0;
#X connect 128 0 129 0;
#X connect 129 0 130 1;
#X connect 130 0 157 0;
#X connect 131 0 134 0;
#X connect 132 0 135 0;
#X connect 133 0 148 0;
#X connect 134 0 136 0;
#X connect 135 0 136 0;
#X connect 136 0 137 0;
#X connect 137 0 138 1;
#X connect 138 0 158 0;
#X connect 139 0 142 0;
#X connect 140 0 143 0;
#X connect 141 0 149 0;
#X connect 142 0 144 0;
#X connect 143 0 144 0;
#X connect 144 0 145 0;
#X connect 145 0 155 1;
#X connect 146 0 115 0;
#X connect 146 1 116 0;
#X connect 147 0 123 0;
#X connect 147 1 124 0;
#X connect 148 0 131 0;
#X connect 148 1 132 0;
#X connect 149 0 139 0;
#X connect 149 1 140 0;
#X connect 150 0 0 0;
#X connect 151 0 5 0;
#X connect 152 0 10 0;
#X connect 153 0 15 0;
#X connect 154 0 20 0;
#X connect 155 0 159 0;
#X connect 160 0 161 0;
#X connect 161 0 220 0;
#X connect 162 0 160 2;
#X connect 163 0 186 0;
#X connect 164 0 210 0;
#X connect 165 0 166 0;
#X connect 166 0 228 0;
#X connect 167 0 165 2;
#X connect 168 0 189 0;
#X connect 169 0 170 0;
#X connect 170 0 236 0;
#X connect 171 0 169 2;
#X connect 172 0 192 0;
#X connect 173 0 212 0;
#X connect 174 0 175 0;
#X connect 175 0 244 0;
#X connect 176 0 174 2;
#X connect 177 0 195 0;
#X connect 178 0 213 0;
#X connect 179 0 180 0;
#X connect 180 0 252 0;
#X connect 181 0 179 2;
#X connect 182 0 199 0;
#X connect 183 0 214 0;
#X connect 184 0 185 0;
#X connect 184 0 200 0;
#X connect 185 0 186 0;
#X connect 186 0 205 0;
#X connect 187 0 188 0;
#X connect 187 0 201 0;
#X connect 188 0 189 0;
#X connect 189 0 206 0;
#X connect 190 0 191 0;
#X connect 190 0 202 0;
#X connect 191 0 192 0;
#X connect 192 0 207 0;
#X connect 193 0 194 0;
#X connect 193 0 203 0;
#X connect 194 0 195 0;
#X connect 195 0 208 0;
#X connect 196 0 211 0;
#X connect 197 0 198 0;
#X connect 197 0 204 0;
#X connect 198 0 199 0;
#X connect 199 0 209 0;
#X connect 200 0 205 1;
#X connect 201 0 206 1;
#X connect 202 0 207 1;
#X connect 203 0 208 1;
#X connect 204 0 209 1;
#X connect 205 0 164 0;
#X connect 206 0 196 0;
#X connect 207 0 173 0;
#X connect 208 0 178 0;
#X connect 209 0 183 0;
#X connect 210 0 160 1;
#X connect 211 0 165 1;
#X connect 212 0 169 1;
#X connect 213 0 174 1;
#X connect 214 0 179 1;
#X connect 215 0 218 0;
#X connect 216 0 215 0;
#X connect 217 0 222 0;
#X connect 218 0 217 0;
#X connect 219 0 218 1;
#X connect 220 0 282 0;
#X connect 221 0 220 1;
#X connect 222 0 221 0;
#X connect 223 0 226 0;
#X connect 224 0 223 0;
#X connect 225 0 230 0;
#X connect 226 0 225 0;
#X connect 227 0 226 1;
#X connect 228 0 290 0;
#X connect 229 0 228 1;
#X connect 230 0 229 0;
#X connect 231 0 234 0;
#X connect 232 0 231 0;
#X connect 233 0 238 0;
#X connect 234 0 233 0;
#X connect 235 0 234 1;
#X connect 236 0 298 0;
#X connect 237 0 236 1;
#X connect 238 0 237 0;
#X connect 239 0 242 0;
#X connect 240 0 239 0;
#X connect 241 0 246 0;
#X connect 242 0 241 0;
#X connect 243 0 242 1;
#X connect 244 0 306 0;
#X connect 245 0 244 1;
#X connect 246 0 245 0;
#X connect 247 0 250 0;
#X connect 248 0 247 0;
#X connect 249 0 254 0;
#X connect 250 0 249 0;
#X connect 251 0 250 1;
#X connect 252 0 312 0;
#X connect 253 0 252 1;
#X connect 254 0 253 0;
#X connect 255 0 274 0;
#X connect 256 0 255 0;
#X connect 257 0 256 0;
#X connect 258 0 273 0;
#X connect 259 0 258 0;
#X connect 260 0 259 0;
#X connect 261 0 272 0;
#X connect 262 0 261 0;
#X connect 263 0 262 0;
#X connect 264 0 271 0;
#X connect 265 0 264 0;
#X connect 266 0 265 0;
#X connect 267 0 270 0;
#X connect 268 0 267 0;
#X connect 269 0 268 0;
#X connect 270 0 247 0;
#X connect 271 0 239 0;
#X connect 272 0 231 0;
#X connect 273 0 223 0;
#X connect 274 0 215 0;
#X connect 275 0 278 0;
#X connect 276 0 279 0;
#X connect 277 0 318 0;
#X connect 278 0 280 0;
#X connect 279 0 280 0;
#X connect 280 0 281 0;
#X connect 281 0 282 1;
#X connect 282 0 313 0;
#X connect 283 0 286 0;
#X connect 284 0 287 0;
#X connect 285 0 319 0;
#X connect 286 0 288 0;
#X connect 287 0 288 0;
#X connect 288 0 289 0;
#X connect 289 0 290 1;
#X connect 290 0 314 0;
#X connect 291 0 294 0;
#X connect 292 0 295 0;
#X connect 293 0 320 0;
#X connect 294 0 296 0;
#X connect 295 0 296 0;
#X connect 296 0 297 0;
#X connect 297 0 298 1;
#X connect 298 0 315 0;
#X connect 299 0 302 0;
#X connect 300 0 303 0;
#X connect 301 0 321 0;
#X connect 302 0 304 0;
#X connect 303 0 304 0;
#X connect 304 0 305 0;
#X connect 305 0 306 1;
#X connect 306 0 316 0;
#X connect 307 0 309 0;
#X connect 308 0 322 0;
#X connect 309 0 310 0;
#X connect 310 0 311 0;
#X connect 311 0 312 1;
#X connect 312 0 317 0;
#X connect 318 0 275 0;
#X connect 318 1 276 0;
#X connect 319 0 283 0;
#X connect 319 1 284 0;
#X connect 320 0 291 0;
#X connect 320 1 292 0;
#X connect 321 0 299 0;
#X connect 321 1 300 0;
#X connect 322 0 307 0;
#X connect 323 0 160 0;
#X connect 324 0 165 0;
#X connect 325 0 169 0;
#X connect 326 0 174 0;
#X connect 327 0 179 0;
#X restore 265 572 pd even;
#X obj 497 118 s adc0;
#X obj 510 139 s adc1;
#X obj 524 161 s adc2;
#X obj 538 183 s adc3;
#X obj 552 119 s adc4;
#X obj 566 141 s adc5;
#X obj 40 -3 loadbang;
#X obj 40 23 delay 300;
#X msg 40 49 \; pd dsp 1 \;;
#X msg 497 23 open;
#X obj 497 0 r initbang;
#X obj 161 40 s initbang;
#X msg 554 22 open adc;
#X obj 497 45 metro 10;
#X obj 497 95 terminal_tedium_adc;
#X msg 554 68 smooth 4;
#X msg 554 46 deadband 2;
#X obj 39 178 s lightswitch;
#X obj 39 89 tedium_input 24;
#X obj 74 156 tedium_output 26;
#X obj 194 88 tedium_input 23;
#X obj 194 111 f;
#X obj 229 111 + 1;
#X obj 194 134 % 2;
#X floatatom 194 157 5 0 0 0 - - -;
#X obj 39 111 f;
#X obj 74 111 + 1;
#X obj 39 134 % 2;
#X floatatom 39 157 5 0 0 0 - - -;
#X obj 300 112 f;
#X obj 335 112 + 1;
#X obj 300 135 % 2;
#X floatatom 300 158 5 0 0 0 - - -;
#X obj 300 89 tedium_input 25;
#X obj 194 179 s toggle1;
#X obj 300 180 s toggle2;
#X obj 309 292 r lightswitch;
#X obj 43 277 r toggle1;
#X obj 132 280 r toggle2;
#X obj 504 287 r adc0;
#X obj 514 347 clip 0 4095;
#X obj 720 341 expr (($f1 / 4095) * 800) + 0.1;
#X obj 720 365 clip 0.1 800;
#X obj 706 281 r adc1;
#X obj 15 224 adc~ 1;
#X obj 100 224 adc~ 2;
#X obj 924 321 clip 0 3000;
#X obj 924 346 expr (($f1 / 3000) * 18) + 2;
#X obj 1124 331 clip 0.1 15;
#X obj 1124 308 expr (($f1 / 4095) * 14.9) + 0.1;
#X obj 1381 343 expr (($f1 / 3100) * 0.9);
#X obj 1381 323 clip 0 3100;
#X obj 904 261 r adc2;
#X obj 1089 261 r adc3;
#X obj 1364 268 r adc4;
#X connect 2 0 115 0;
#X connect 4 0 8 0;
#X connect 5 0 9 0;
#X connect 7 0 124 0;
#X connect 8 0 36 0;
#X connect 9 0 35 0;
#X connect 10 0 9 1;
#X connect 10 0 8 1;
#X connect 11 0 10 0;
#X connect 12 0 14 0;
#X connect 13 0 116 0;
#X connect 14 0 15 0;
#X connect 14 1 34 0;
#X connect 15 0 11 0;
#X connect 15 0 33 0;
#X connect 16 0 18 0;
#X connect 17 0 16 0;
#X connect 19 0 17 0;
#X connect 21 0 126 0;
#X connect 22 0 60 0;
#X connect 23 0 24 0;
#X connect 24 0 25 0;
#X connect 26 0 23 0;
#X connect 27 0 121 0;
#X connect 28 0 29 0;
#X connect 28 0 30 0;
#X connect 34 0 11 0;
#X connect 34 0 33 0;
#X connect 35 0 0 1;
#X connect 36 0 0 0;
#X connect 39 0 44 0;
#X connect 39 0 41 0;
#X connect 40 0 43 0;
#X connect 40 0 42 0;
#X connect 41 0 31 0;
#X connect 41 0 32 0;
#X connect 42 0 31 0;
#X connect 42 0 32 0;
#X connect 43 0 32 0;
#X connect 44 0 31 0;
#X connect 45 0 42 1;
#X connect 46 0 43 1;
#X connect 47 0 44 1;
#X connect 48 0 41 1;
#X connect 49 0 47 0;
#X connect 50 0 47 0;
#X connect 51 0 48 0;
#X connect 52 0 45 0;
#X connect 53 0 46 0;
#X connect 54 0 46 0;
#X connect 55 0 48 0;
#X connect 56 0 45 0;
#X connect 57 0 58 0;
#X connect 58 0 55 0;
#X connect 58 0 56 0;
#X connect 58 0 50 0;
#X connect 58 0 54 0;
#X connect 58 1 49 0;
#X connect 58 1 53 0;
#X connect 58 1 51 0;
#X connect 58 1 52 0;
#X connect 59 0 64 0;
#X connect 60 0 37 0;
#X connect 61 0 60 1;
#X connect 62 0 61 0;
#X connect 63 0 61 0;
#X connect 64 0 62 0;
#X connect 64 1 63 0;
#X connect 65 0 67 0;
#X connect 66 0 71 0;
#X connect 67 0 38 0;
#X connect 68 0 67 1;
#X connect 69 0 68 0;
#X connect 70 0 68 0;
#X connect 71 0 69 0;
#X connect 71 1 70 0;
#X connect 72 0 3 0;
#X connect 81 0 82 0;
#X connect 82 0 83 0;
#X connect 82 0 86 0;
#X connect 84 0 89 0;
#X connect 85 0 84 0;
#X connect 85 0 87 0;
#X connect 85 0 88 0;
#X connect 88 0 89 0;
#X connect 89 0 75 0;
#X connect 89 1 76 0;
#X connect 89 2 77 0;
#X connect 89 3 78 0;
#X connect 89 4 79 0;
#X connect 89 5 80 0;
#X connect 90 0 89 0;
#X connect 91 0 89 0;
#X connect 93 0 100 0;
#X connect 95 0 96 0;
#X connect 96 0 97 0;
#X connect 96 0 98 0;
#X connect 97 0 96 1;
#X connect 98 0 99 0;
#X connect 99 0 109 0;
#X connect 100 0 101 0;
#X connect 100 0 102 0;
#X connect 101 0 100 1;
#X connect 102 0 103 0;
#X connect 103 0 92 0;
#X connect 103 0 94 0;
#X connect 104 0 105 0;
#X connect 104 0 106 0;
#X connect 105 0 104 1;
#X connect 106 0 107 0;
#X connect 107 0 110 0;
#X connect 108 0 104 0;
#X connect 111 0 57 0;
#X connect 112 0 59 0;
#X connect 113 0 66 0;
#X connect 114 0 115 0;
#X connect 115 0 72 0;
#X connect 116 0 117 0;
#X connect 117 0 1 0;
#X connect 118 0 116 0;
#X connect 119 0 37 0;
#X connect 120 0 38 0;
#X connect 121 0 122 0;
#X connect 122 0 28 0;
#X connect 123 0 6 0;
#X connect 124 0 123 0;
#X connect 125 0 20 0;
#X connect 126 0 125 0;
#X connect 127 0 121 0;
#X connect 128 0 124 0;
#X connect 129 0 126 0;
